<svg id="Layer_1" data-name="Layer 1" xmlns="http://www.w3.org/2000/svg" viewBox="0 0 1053.98 1053.98"><defs><style>.cls-1{fill:#fff;}.cls-2{fill:#c9235c;}</style></defs><title>newArtboard 3</title><polygon class="cls-1" points="498.76 429.64 385.85 429.64 329.39 527.4 385.85 625.17 498.76 625.17 555.22 527.4 498.76 429.64"/><polygon class="cls-1" points="837.51 429.64 724.6 429.64 668.14 527.4 724.6 625.17 837.51 625.17 893.97 527.4 837.51 429.64"/><polygon class="cls-1" points="216.47 918.62 279.68 918.62 211.1 909.26 216.47 918.62"/><polygon class="cls-1" points="385.85 820.71 329.39 722.94 216.47 722.94 160.01 820.71 211.1 909.26 279.68 918.62 329.39 918.62 385.85 820.71"/><polygon class="cls-1" points="279.68 918.62 333.66 925.92 329.39 918.62 279.68 918.62"/><polygon class="cls-1" points="498.76 625.17 385.85 625.17 329.39 722.94 385.85 820.71 498.76 820.71 555.22 722.94 498.76 625.17"/><polygon class="cls-1" points="498.76 820.71 385.85 820.71 329.39 918.62 333.66 925.92 535.12 953.32 555.22 918.62 498.76 820.71"/><polygon class="cls-1" points="555.22 527.4 498.76 625.17 555.22 722.94 668.14 722.94 724.6 625.17 668.14 527.4 555.22 527.4"/><polygon class="cls-1" points="555.22 722.94 498.76 820.71 555.22 918.62 668.14 918.62 724.6 820.71 668.14 722.94 555.22 722.94"/><polygon class="cls-1" points="555.22 918.62 535.12 953.32 701.33 975.91 668.14 918.62 555.22 918.62"/><polygon class="cls-1" points="837.51 625.17 724.6 625.17 668.14 722.94 724.6 820.71 837.51 820.71 893.97 722.94 837.51 625.17"/><circle class="cls-2" cx="526.99" cy="526.99" r="526.99"/><path class="cls-1" d="M791.25,241.81c1.51,32.08.41,112.23-43.38,157.94L613.75,341.37s19.82-51.09,163.73-108.65a10.21,10.21,0,0,1,13.77,9.09Z"/><path class="cls-1" d="M585.38,332.55S636.6,278.3,779.82,232.17c0,0-99.7,47.92-150.93,112.09l-43.51-11.71Z"/><path class="cls-1" d="M270.59,241.81C269.07,273.89,270.17,354,314,399.75l134.13-58.38s-19.83-51.09-163.73-108.65C278.16,230.24,271,234.78,270.59,241.81Z"/><path class="cls-1" d="M476.59,332.55S425.37,278.3,282.15,232.17c0,0,99.7,47.92,150.93,112.09l43.51-11.71Z"/><ellipse class="cls-1" cx="526.99" cy="553.71" rx="283.39" ry="244.84"/><path class="cls-2" d="M525.48,667c-11,18.31-45.44,30.57-69,16.38s-40.35-39.79-29.33-58.11,53.56-31.53,96.53-4.13C546.27,635.5,536.49,648.72,525.48,667Z"/><path class="cls-2" d="M530.57,667c11,18.31,45.44,30.57,69,16.38s40.35-39.79,29.33-58.11-53.56-31.53-96.53-4.13c-22.44,14.32-12.8,27.54-1.79,45.86Z"/><path class="cls-2" d="M497.52,593.23s7.44,26.71,23,41.17l9.36-31.81-32.36-9.36Z"/><path class="cls-2" d="M558.39,593.23s-7.44,26.71-23,41.17L526,602.59l32.36-9.36Z"/><path class="cls-2" d="M560.32,603.28l-7.44,9.5a95.08,95.08,0,0,0-14.6,26l-3,8a8.4,8.4,0,0,1-14.59,0,99.22,99.22,0,0,0-23-41.17l-2.06-2.2a8.39,8.39,0,0,1-.83-6.47,8.49,8.49,0,0,1,10.05-5.79l11.84,2.48a52.8,52.8,0,0,0,22.73,0l11.84-2.48a8.55,8.55,0,0,1,10,5.79A8.78,8.78,0,0,1,560.32,603.28Z"/><path class="cls-2" d="M578.22,653.4S694,610.3,784.5,698.3C784.5,698.16,701.32,623,578.22,653.4Z"/><path class="cls-2" d="M581.25,645s108.92-58.11,210.41,16.94C791.66,661.94,699.12,598.46,581.25,645Z"/><path class="cls-2" d="M577.12,661.8s120.07-28.91,199.53,69.13C776.65,730.93,703,646.38,577.12,661.8Zm-98.88-8.4S362.44,610.3,272,698.3C272,698.16,355.14,623,478.24,653.4Z"/><path class="cls-2" d="M475.22,645S366.29,586.89,264.8,661.94C264.8,661.94,357.34,598.46,475.22,645Z"/><path class="cls-2" d="M479.21,661.8s-120.08-28.91-199.53,69.13C280,730.93,353.49,646.38,479.21,661.8Z"/><path class="cls-1" d="M427.29,324.15l-8.67,3,54,53.16c30.57,30.71,88.54,30.57,119-.14L641.7,329l-6.47-2.34c-24.38-8.95-67.48-18.31-104.24-18.31C495.32,308.59,455.52,314.24,427.29,324.15ZM648.45,799.37c-1.1-.55-4.55-.14-9.09.83-.28-.69-.55-1.24-.69-1.52-2.2-1.65-31.95,5.79-45.44,10.88a202.8,202.8,0,0,0-46.55,25.06c-7.57-1.79-32.08-1.79-39.65,0a202.8,202.8,0,0,0-46.55-25.06c-13.36-5.23-43.1-12.53-45.44-10.88-.14.28-.41.83-.69,1.52-4.54-.83-8-1.24-9.09-.83-2.2,3.86-10.6,40.35-10.88,58.11s11.43,57.7,14.46,59.21c.83.42,3.86-.13,8.54-1a9,9,0,0,0,1.24,1.79c3.17,1.51,46.13-10.19,58.11-16.94a107.44,107.44,0,0,0,29.47-25.47v.82c7.85,2.62,32.22,2.62,40.07,0v-.82a107.8,107.8,0,0,0,30,25.47c11.84,6.75,55.49,18.59,58.52,16.94a4.17,4.17,0,0,0,1.24-1.79c4.55,1,7.85,1.38,8.54,1,3-1.51,14.74-41.31,14.46-59.21C659.05,839.72,650.65,803.23,648.45,799.37Z"/></svg>