<svg xmlns="http://www.w3.org/2000/svg" viewBox="0 0 718.39 979.72">
  <defs>
    <style>
      .cls-12,.cls-8,.cls-9{fill:#fff}.cls-10,.cls-9{stroke-miterlimit:10}.cls-3,.cls-8{stroke-linecap:round}.cls-10,.cls-3{fill:none}.cls-10,.cls-3,.cls-8,.cls-9{stroke:#000;stroke-width:4px}.cls-3,.cls-8{stroke-linejoin:round}.cls-6{fill:#10fefc}.cls-7{fill:#64cffd}
    </style>
  </defs>
  <g id="Layer_2" data-name="Layer 2">
    <g id="_Group_" data-name="&lt;Group&gt;">
      <path id="_Path_" data-name="&lt;Path&gt;" d="M358.44 8.5S214.69 86.37 150.3 92.36c0 0-17.22 97.33-141.5 172.2 0 0 19.75 315.35 111.63 410.35a44.34 44.34 0 0 0 6.29 5.3c23.21 16.35 160.58 113.48 231.72 166.83" stroke-miterlimit="10" stroke="#903701" stroke-width="17" fill="#fff"/>
      <path id="_Path_2" data-name="&lt;Path&gt;" d="M359.94 847.04c71.14-53.35 208.51-150.48 231.72-166.83a44.34 44.34 0 0 0 6.29-5.3c91.88-95 111.63-410.35 111.63-410.35-124.28-74.87-141.5-172.2-141.5-172.2-64.39-6-208.14-83.86-208.14-83.86" stroke-linecap="round" stroke-miterlimit="10" stroke="#903701" stroke-width="17" fill="#fff"/>
      <path id="_Path_3" data-name="&lt;Path&gt;" class="cls-3" d="M511.34 78.06s-127.6 69.11-184.75 74.43c0 0-15.29 86.39-125.6 152.85 0 0 17.53 279.92 99.08 364.23a38.72 38.72 0 0 0 5.59 4.71c20.6 14.54 142.53 100.72 205.68 148.08" transform="translate(-152.81 -22.44)"/>
      <path id="_Path_4" data-name="&lt;Path&gt;" class="cls-3" d="M512.66 822.36C575.81 775 697.74 688.82 718.34 674.28a38.72 38.72 0 0 0 5.59-4.71C805.48 585.26 823 305.34 823 305.34c-110.31-66.46-125.6-152.85-125.6-152.85-57.15-5.32-184.75-74.43-184.75-74.43" transform="translate(-152.81 -22.44)"/>
      <path id="_Path_5" data-name="&lt;Path&gt;" d="M697.41 152.49c-57.15-5.32-184.75-74.43-184.75-74.43v744.3C575.81 775 697.74 688.82 718.34 674.28a38.72 38.72 0 0 0 5.59-4.71C805.48 585.26 823 305.34 823 305.34c-110.3-66.46-125.59-152.85-125.59-152.85z" transform="translate(-152.81 -22.44)" fill="#1bb835"/>
      <path id="_Path_6" data-name="&lt;Path&gt;" d="M306.47 674.28C327.07 688.82 449 775 512.15 822.36V78.06s-127.59 69.11-184.74 74.43c0 0-15.29 86.39-125.6 152.85 0 0 17.53 279.92 99.08 364.23a39.19 39.19 0 0 0 5.58 4.71z" transform="translate(-152.81 -22.44)" fill="#ff8c00"/>
      <g id="_Group_2" data-name="&lt;Group&gt;">
        <g id="_Group_3" data-name="&lt;Group&gt;">
          <path id="_Path_7" data-name="&lt;Path&gt;" d="M418.7 230.66s-95.93 27.59-93.3 134c0 0-84.1 71-2.63 170.83 0 0-17.08 94.61 84.1 132.72 0 0 39.43 64.39 105.13 61.76V180.72s-57.82-1.31-93.3 49.94z" transform="translate(-152.81 -22.44)"/>
          <path id="_Path_8" data-name="&lt;Path&gt;" d="M698.6 364.69c2.63-106.44-93.3-134-93.3-134-35.48-51.25-93.3-49.94-93.3-49.94V730c65.7 2.63 105.13-61.76 105.13-61.76 101.18-38.11 84.1-132.72 84.1-132.72 81.47-99.87-2.63-170.83-2.63-170.83z" transform="translate(-152.81 -22.44)"/>
        </g>
        <g id="_Group_4" data-name="&lt;Group&gt;">
          <path id="_Path_9" data-name="&lt;Path&gt;" class="cls-6" d="M420.8 235.7s-93.77 27-91.21 131c0 0-82.21 69.36-2.56 167 0 0-16.7 92.49 82.21 129.74 0 0 38.53 62.94 102.76 60.37V186.89s-56.52-1.28-91.2 48.81z" transform="translate(-152.81 -22.44)"/>
          <path id="_Path_10" data-name="&lt;Path&gt;" class="cls-6" d="M694.41 366.73c2.56-104-91.21-131-91.21-131-34.68-50.09-91.2-48.81-91.2-48.81v536.91c64.23 2.57 102.76-60.37 102.76-60.37C713.67 626.21 697 533.72 697 533.72c79.62-97.63-2.59-166.99-2.59-166.99z" transform="translate(-152.81 -22.44)"/>
        </g>
      </g>
      <g id="_Group_5" data-name="&lt;Group&gt;">
        <g id="_Group_6" data-name="&lt;Group&gt;">
          <path id="_Path_11" data-name="&lt;Path&gt;" d="M418.7 230.66s-95.93 27.59-93.3 134c0 0-84.1 71-2.63 170.83 0 0-17.08 94.61 84.1 132.72 0 0 39.43 64.39 105.13 61.76V180.72s-57.82-1.31-93.3 49.94z" transform="translate(-152.81 -22.44)"/>
          <path id="_Path_12" data-name="&lt;Path&gt;" d="M698.6 364.69c2.63-106.44-93.3-134-93.3-134-35.48-51.25-93.3-49.94-93.3-49.94V730c65.7 2.63 105.13-61.76 105.13-61.76 101.18-38.11 84.1-132.72 84.1-132.72 81.47-99.87-2.63-170.83-2.63-170.83z" transform="translate(-152.81 -22.44)"/>
        </g>
        <g id="_Group_7" data-name="&lt;Group&gt;">
          <path id="_Path_13" data-name="&lt;Path&gt;" class="cls-7" d="M420.8 235.7s-93.77 27-91.21 131c0 0-82.21 69.36-2.56 167 0 0-16.7 92.49 82.21 129.74 0 0 38.53 62.94 102.76 60.37V186.89s-56.52-1.28-91.2 48.81z" transform="translate(-152.81 -22.44)"/>
          <path id="_Path_14" data-name="&lt;Path&gt;" class="cls-7" d="M694.41 366.73c2.56-104-91.21-131-91.21-131-34.68-50.09-91.2-48.81-91.2-48.81v536.91c64.23 2.57 102.76-60.37 102.76-60.37C713.67 626.21 697 533.72 697 533.72c79.62-97.63-2.59-166.99-2.59-166.99z" transform="translate(-152.81 -22.44)"/>
        </g>
      </g>
      <g id="_Group_8" data-name="&lt;Group&gt;">
        <path id="_Path_15" data-name="&lt;Path&gt;" class="cls-8" d="M732.54 458.58H586s-8.11-13.72-12.48-20.58l129.08-63-8.47-8.85-126.5 59.7c-25.87-42.1-51.43-47.47-55.42-48.07v-.07h-.56l-2.24.07c-4 .6-27.31 6-53.17 48.07l-126.51-59.7-8.47 8.85 129.12 63c-4.36 6.86-12.47 20.58-12.47 20.58H291.32l1.87 13.73H432.7c-4.37 7.48-14.75 35.55-14.75 35.55l-91.78 28.28-.54 12.27 101.05-31.82c46.69-120.24 81-124.69 85.25-124.76s38.56 4.52 85.25 124.76l101.06 31.82-.55-12.27-91.77-28.28s-10.39-28.07-14.76-35.55h139.51z" transform="translate(-152.81 -22.44)"/>
        <path id="_Path_16" data-name="&lt;Path&gt;" class="cls-9" d="M218.17 443.81l12.03-16.44-20.25 2.2-8.21-18.63-8.22 18.63-20.25-2.2 12.03 16.44-12.03 16.43 20.25-2.2 8.22 18.63 8.21-18.63 20.25 2.2-12.03-16.43z"/>
        <path id="_Path_17" data-name="&lt;Path&gt;" class="cls-9" d="M500.08 443.81l-12.03-16.44 20.25 2.2 8.21-18.63 8.22 18.63 20.25-2.2-12.03 16.44 12.03 16.43-20.25-2.2-8.22 18.63-8.21-18.63-20.25 2.2 12.03-16.43z"/>
      </g>
      <path id="_Path_18" data-name="&lt;Path&gt;" class="cls-10" d="M470.79 377.26l-14.78-36.75-49.56 50.76"/>
      <path id="_Path_19" data-name="&lt;Path&gt;" class="cls-10" d="M439.6 357.08l-32.77-33.36-24.37 42.96"/>
      <path id="_Path_20" data-name="&lt;Path&gt;" stroke="#000" stroke-width="4" fill="none" stroke-linecap="round" stroke-miterlimit="10" d="M393.04 347.11l-32.22-67.78"/>
      <path id="_Path_21" data-name="&lt;Path&gt;" class="cls-10" d="M250.07 378.08l14.78-37.57 48.74 49.12"/>
      <path id="_Path_22" data-name="&lt;Path&gt;" class="cls-10" d="M281.26 357.08l32.77-33.36 23.55 41.32"/>
      <path id="_Path_23" data-name="&lt;Path&gt;" class="cls-3" d="M327.82 347.11l32.02-67.78"/>
      <path id="_Path_24" data-name="&lt;Path&gt;" class="cls-3" d="M361.03 252.82v-34.23"/>
      <g id="_Group_9" data-name="&lt;Group&gt;">
        <path id="_Path_25" data-name="&lt;Path&gt;" class="cls-3" d="M391.14 288.1l9.59-23.88"/>
        <path id="_Path_26" data-name="&lt;Path&gt;" class="cls-3" d="M436.94 320.81l9.59-23.87"/>
        <path id="_Path_27" data-name="&lt;Path&gt;" class="cls-3" d="M460.52 331.16l22.79-18.02"/>
        <path id="_Path_28" data-name="&lt;Path&gt;" class="cls-3" d="M480.15 355.93l17.02-13.46"/>
        <path id="_Path_29" data-name="&lt;Path&gt;" class="cls-3" d="M413.44 297.12l16.54-32.14"/>
      </g>
      <g id="_Group_10" data-name="&lt;Group&gt;">
        <path id="_Path_30" data-name="&lt;Path&gt;" class="cls-3" d="M329.2 288.1l-9.59-23.88"/>
        <path id="_Path_31" data-name="&lt;Path&gt;" class="cls-3" d="M283.4 320.81l-9.58-23.87"/>
        <path id="_Path_32" data-name="&lt;Path&gt;" class="cls-3" d="M259.82 331.16l-22.79-18.02"/>
        <path id="_Path_33" data-name="&lt;Path&gt;" class="cls-3" d="M240.19 355.93l-17.02-13.46"/>
        <path id="_Path_34" data-name="&lt;Path&gt;" class="cls-3" d="M306.9 297.12l-16.54-32.14"/>
      </g>
      <path id="_Path_35" data-name="&lt;Path&gt;" class="cls-8" d="M488.23 515.55h47.9l-16.82-25v-15.8H504v17.84s-14.75 21.94-15.77 22.96z" transform="translate(-152.81 -22.44)"/>
      <path id="_Path_36" data-name="&lt;Path&gt;" class="cls-8" d="M512.06 474.15v-8.65s23-9 0-38.93c0 0-23.57 27.62-.28 39.27" transform="translate(-152.81 -22.44)"/>
      <g id="_Group_11" data-name="&lt;Group&gt;">
        <path id="_Path_37" data-name="&lt;Path&gt;" class="cls-3" d="M372.25 387.86l-4.97 6.34"/>
        <path id="_Path_38" data-name="&lt;Path&gt;" class="cls-3" d="M385.1 402.76l-6.9 4.96"/>
        <path id="_Path_39" data-name="&lt;Path&gt;" class="cls-3" d="M393.38 421.56l-9.11.55"/>
        <path id="_Path_40" data-name="&lt;Path&gt;" class="cls-3" d="M393.11 440.45l-11.25-5.93"/>
        <path id="_Path_41" data-name="&lt;Path&gt;" class="cls-3" d="M380.76 452.7l-3.58-5.24"/>
      </g>
      <g id="_Group_12" data-name="&lt;Group&gt;">
        <path id="_Path_42" data-name="&lt;Path&gt;" class="cls-3" d="M346.56 387.86l4.97 6.34"/>
        <path id="_Path_43" data-name="&lt;Path&gt;" class="cls-3" d="M333.71 402.76l6.9 4.96"/>
        <path id="_Path_44" data-name="&lt;Path&gt;" class="cls-3" d="M325.43 421.56l9.11.55"/>
        <path id="_Path_45" data-name="&lt;Path&gt;" class="cls-3" d="M325.7 440.45l11.25-5.93"/>
        <path id="_Path_46" data-name="&lt;Path&gt;" class="cls-3" d="M338.05 452.7l3.59-5.24"/>
      </g>
      <g id="_Group_13" data-name="&lt;Group&gt;">
        <path id="_Path_47" data-name="&lt;Path&gt;" class="cls-8" d="M484.57 684.45H542l-16.76-24.24h-23.19s-18.55 24.24-17.48 24.24z" transform="translate(-152.81 -22.44)"/>
        <path id="_Path_48" data-name="&lt;Path&gt;" class="cls-8" d="M517.41 593.66c-2.18.27 53.69 12.27 105.59 16.29 15.47 1.2 19.9-30.55 11.73-29.33-2.34.35-4-.68-18.88 1C578.71 585.74 514.8 593 514.8 593s-103.6-18.09-114.75-18.09c-4.08 0-4.13 24.8 3.45 31 10.73 8.79 101.66-11.44 113.91-12.25z" transform="translate(-152.81 -22.44)"/>
        <path id="_Path_49" data-name="&lt;Path&gt;" class="cls-8" d="M419 573.81s-7.15-13.3.44-13.71c6.9-.36 98.67 13.46 98.58 14 0 0 99.8-14.19 101-8.48s-5.22 15.64-5.22 15.64l-96.46 12.39L418.9 577" transform="translate(-152.81 -22.44)"/>
        <path id="_Path_50" data-name="&lt;Path&gt;" class="cls-8" d="M428 582.81l-4.39 19.27H299.6l-3.54-19.27 68.55-11.59L428 582.81z"/>
        <path id="_Path_51" data-name="&lt;Path&gt;" class="cls-9" d="M372.63 622.06l11.71-19.29-46.84.69 11.71 18.6"/>
        <ellipse id="_Path_52" data-name="&lt;Path&gt;" class="cls-8" cx="361.05" cy="630.46" rx="14.6" ry="11.98"/>
      </g>
      <path id="_Path_54" data-name="&lt;Path&gt;" class="cls-3" d="M514.58 573.14c-.92-.07 4.28-25.27 23.63-17 12.79 5.47-8.57 18.09-23.63 17z" transform="translate(-152.81 -22.44)"/>
      <path id="_Path_55" data-name="&lt;Path&gt;" class="cls-3" d="M508.74 547.63c11 5.57 4.91 25.49 4.91 25.49" transform="translate(-152.81 -22.44)"/>
      <path id="_Path_56" data-name="&lt;Path&gt;" class="cls-3" d="M514.58 573.14s-16.44-19.71-21-13.33c-7 9.81 20.13 13.66 20.08 13.31 0 0-2.35-20.4-15.78-21.3" transform="translate(-152.81 -22.44)"/>
    </g>
  </g>
  <g id="Layer_3" data-name="Layer 3">
    <path class="cls-12" d="M268.93 1002.17h486.14v-94.88H268.93z" transform="translate(-152.81 -22.44)"/>
    <path d="M268.93 1002.17v-94.88h486.14v94.88zm324.62-32c-1.29.38-2.57.82-3.87 1.14-1.65.39-3.33.69-5 1-.22-1.69-.87-3.45-.59-5a6.26 6.26 0 0 0-3-6.94c-1.45-1-3.09-1.65-5.06-2.69a10 10 0 0 0-.79 2.79c.09 2 .8 4.08.58 6-.41 3.56.77 6.35 3.64 8.1s6.35 2.8 6.31 7.11c0 .26.39.53.6.79a13.82 13.82 0 0 0 21.45.83l1.94-2.05a37.42 37.42 0 0 1 3.14 5c1.31 3.11 4.28 3.36 6.82 4.32.23.08 1.32-1.2 1.41-1.92s-.77-1.29-1.19-2l-8.92-14.19c1.16-.57 1.78-.83 2.36-1.15 2.69-1.5 4.3-3.61 3.67-6.86-.67-3.43-3.11-6-6-6-3.29 0-5 1.94-6 4.93a3.73 3.73 0 0 1-1.74 2.19c-3.51 1.36-9.36-1-11.26-4.26-2.24-3.88-.75-7.94 3.58-9a35.24 35.24 0 0 1 7.69-.71c8.77-.08 8.86 0 8.7-8.64-.05-2.6.58-3.53 3.36-3.49 12.16.14 24.32.11 36.48 0 2.34 0 4.27.59 4.61 2.86a5 5 0 0 1-1.64 4.13c-1.86 1.12-4 3.45-6.55 1-4.76-4.46-10.55-4.89-16.42-3.6-9.27 2.05-12.36 10.92-6.42 18.37a16.38 16.38 0 0 0 6.42 4.68c7.69 3.15 14.5 1.5 20.21-5.07 5.77 5.78 12.55 6.53 20.13 4v10.36c1.14.36 2.08.7 3 .94 4.18 1.06 4.29 1 4.28-3.49 0-8.78-.06-17.56-.12-26.34 0-7.81-.05-7.81 7.73-7.81 7.19 0 7.14 0 7.21 7.34 0 3.44.67 7-4.19 7.91-.63.11-1.28 1-1.62 1.63-1.82 3.53.69 5.7 2.75 7.84 1.8 1.89 3.94 3.72 6.81 2.69s3.06-3.61 3.26-6.14c0-.17.28-.31.38-.41h13.69v15.88l2.21.63c5.17 1.51 5.23 1.48 5.19-4-.06-10-.11-20-.31-30.06-.05-2.5.75-3.48 3.28-3.32a38.87 38.87 0 0 0 5.2-.37c-2.34-5.88-2.34-5.88-7.63-5.88H574.68c-10.06 0-7.37 1.8-12.2-7.13-.8-1.48-1.65-2.93-2.5-4.39-4.72-8.06-10.56-10.43-19.59-7.83a3 3 0 0 0-1.92 1.89c-.41 3.59 2.75 6 6.26 5.79 3-.21 6.62-.45 9 .94 3.61 2.08 4.6 6.51 6.35 10.57-1.51.09-2.39.19-3.28.19-7.88 0-15.76 0-23.64.08-1 0-2.75 1-2.8 1.64-.21 2.4 2.38 4.57 4.94 4.58h21.62c3.84 0 4.14.45 3.14 3.9-4.5 0-8.87-.25-13.21 0-9.07.64-14 8.47-10.24 16.13 2.78 5.64 7.65 8.5 13.79 8.78 3.15.15 6.35-.64 9.93-1.06 0 2.22.11 4.44 0 6.64-.26 4.1 3.29 3.13 5.23 3.59 2.47.59 1.89-1.87 1.89-3.26 0-10.58 0-21.17-.1-31.75 0-2.39.74-3.09 3.09-3.07 10.47.11 20.94.07 31.41 0 2 0 3.45 0 3.41 2.75s-1.52 2.39-3.29 2.54c-4 .34-8.13.39-11.94 1.49-5 1.44-7 5.77-6 10.91a16.72 16.72 0 0 0 6.06 9.83c1.15 1 2.18 2 3.26 3.07zM508 939.68a39.09 39.09 0 0 0 5.82-.09c.78-.12 2.12-1.51 2-1.76-1-2.2-1.52-4.62-5.15-4.55-14 .26-27.93.07-41.89.16a4 4 0 0 1-4.2-2.51c-1.41-2.93-3-5.78-4.62-8.6-5-8.56-10.14-10.79-19.68-8.36-.84.21-2 1.31-2.08 2a5.1 5.1 0 0 0 6.34 5.51c8.05-1.53 14.49 3.63 14.58 11.86H323.36a22.77 22.77 0 0 0-4.39.88 23 23 0 0 0 1.73 4.24 3.57 3.57 0 0 0 2.47 1.08c1.86.16 3.75 0 5.73 0 .09 1.34.19 2.22.19 3.11v9.12a2.72 2.72 0 0 1-.7 1.75c-2.53 2.35-9.17 1.65-11.08-1.18a2.53 2.53 0 0 1-.11-2c2.27-5.43.49-10.06-3.24-13.89-3.95-4.07-9-5-14.32-3-8.42 3.22-8.25 3.27-2.66 9.85 3.19-1.21 6.25-2.6 9.44-3.51 2.38-.68 4.82.11 5.3 2.79.44 2.49-1.21 4.21-3.7 4.83-1.75.42-3.58.53-5.28 1.08-7.44 2.4-6.31 2-2.64 7.37a18.88 18.88 0 0 0 1.2 1.49c2.56-.74 4.79-1.53 7.08-2 2.7-.58 4.93.27 6.07 3s-.14 4.57-2.15 6.15c-3.5 2.74-8.7 2.39-12.6-1.39a67.56 67.56 0 0 1-7.13-8.89c-1.17-1.6-2.15-1.82-3.9-.85-1.92 1.06-1.58 2.27-.64 3.55 2.82 3.89 5.37 8.09 8.74 11.45a19.34 19.34 0 0 0 8.68 4.75c9.18 2.26 14.55-1.82 16.34-11.76l7.36.79v14.26c1.32.36 2.4.67 3.49.94 3.54.87 3.74.73 3.75-3.06v-16.55-18.09c3.06 0 5.76.19 8.41 0 3-.27 4 .71 3.77 3.76a49.07 49.07 0 0 0 .21 9.77c.55 4.47 3.22 7.76 7.42 10.24-2.23 1.51-4 2.69-5.74 3.89-6.68 4.59-7.69 3.66.34 8.5a2.15 2.15 0 0 0 .67.1l17.89-12.32v12.75c1 .35 1.72.64 2.46.85 4.68 1.28 4.8 1.14 4.75-3.87q-.15-15.19-.18-30.4c0-1.35-.54-3.19 1.83-3.2h12.91v13.68c-3 1-6.4 1.59-6 5.76.29 3 5.34 8 8.23 8.12 4.73.24 4.56-3.68 5.33-6.7h14v15.8c.77.25 1.39.47 2 .65 5 1.45 5.15 1.37 5.13-3.74-.05-10.13-.09-20.27-.22-30.4 0-2.15.32-3.29 2.9-3.26 11.6.12 23.2.1 34.8 0 2.3 0 2.85.85 2.84 3s-.46 3-2.83 3c-8.67-.16-17.34-.14-26-.09a31.58 31.58 0 0 0-4.78.73 23.36 23.36 0 0 0 1.93 4.81c.53.79 1.95 1.19 3 1.37a28.37 28.37 0 0 0 4.46.06c-1.31 12 5.73 18.94 13.55 26 .92-1.08 1.66-1.87 2.31-2.74 3-4 2.9-4-1.06-6.85a40.78 40.78 0 0 1-6.3-5.57c-4-4.48-2.61-8.86 3.32-10.1 2.72-.57 5.59-.45 8.37-.78 3-.35 4.15.6 4 3.87-.28 6.72-.08 13.47-.08 20.15l1.89.55c5.27 1.49 5.31 1.48 5.28-3.89-.05-10.13-.06-20.26-.26-30.4 0-2.42.72-3.1 3.07-3.06 8.33.11 16.66 0 25 0 6.81 0 5.78-.57 6 5.93.13 3.11-1.16 3.47-3.82 3.26a78.47 78.47 0 0 0-12.45-.22c-3.28.27-7.16.74-8.14 4.76-.87 3.56 1.52 6.29 4 8.36 1.56 1.29 3.92 2.46 5.8 2.29 2.77-.25 2.6-3.09 2.9-5.36.14-1.05 1.06-2.77 1.75-2.84 3.18-.3 6.39-.13 9.66-.13v20.51c7.35 2.62 7.35 2.62 7.3-4.76v-5.07zM738.62 993c-3.7-3.29-7.06-6.44-10.59-9.39-4.25-3.54-9-5.9-14.75-5.4-.91.08-2.31.78-2.52 1.48-.75 2.46 2.18 5.91 4.69 5.66a14.43 14.43 0 0 1 11.21 3.57c3 2.52 6 5 9.31 7.74.91-1.28 1.66-2.33 2.65-3.66z" transform="translate(-152.81 -22.44)"/>
    <path class="cls-12" d="M508 939.68v31.8c.05 7.38.05 7.38-7.3 4.76v-20.51c-3.27 0-6.48-.17-9.66.13-.69.07-1.61 1.79-1.75 2.84-.3 2.27-.13 5.11-2.9 5.36-1.88.17-4.24-1-5.8-2.29-2.5-2.07-4.89-4.8-4-8.36 1-4 4.86-4.49 8.14-4.76a78.47 78.47 0 0 1 12.45.22c2.66.21 4-.15 3.82-3.26-.27-6.5.76-5.91-6-5.93-8.34 0-16.67.07-25 0-2.35 0-3.11.64-3.07 3.06.2 10.14.21 20.27.26 30.4 0 5.37 0 5.38-5.28 3.89l-1.89-.55c0-6.68-.2-13.43.08-20.15.13-3.27-1-4.22-4-3.87-2.78.33-5.65.21-8.37.78-5.93 1.24-7.36 5.62-3.32 10.1a40.78 40.78 0 0 0 6.3 5.57c4 2.9 4 2.82 1.06 6.85-.65.87-1.39 1.66-2.31 2.74-7.82-7.07-14.86-14.05-13.55-26a28.37 28.37 0 0 1-4.46-.06c-1.08-.18-2.5-.58-3-1.37a23.36 23.36 0 0 1-1.93-4.81 31.58 31.58 0 0 1 4.78-.73c8.67-.05 17.34-.07 26 .09 2.37 0 2.82-.86 2.83-3s-.54-3-2.84-3c-11.6.09-23.2.11-34.8 0-2.58 0-2.93 1.11-2.9 3.26.13 10.13.17 20.27.22 30.4 0 5.11-.11 5.19-5.13 3.74-.62-.18-1.24-.4-2-.65v-15.8h-14c-.77 3-.6 6.94-5.33 6.7-2.89-.15-7.94-5.11-8.23-8.12-.4-4.17 3-4.73 6-5.76v-13.7h-12.91c-2.37 0-1.84 1.85-1.83 3.2q0 15.2.18 30.4c.05 5-.07 5.15-4.75 3.87-.74-.21-1.46-.5-2.46-.85v-12.74l-17.89 12.32a2.15 2.15 0 0 1-.67-.1c-8-4.84-7-3.91-.34-8.5 1.75-1.2 3.51-2.38 5.74-3.89-4.2-2.48-6.87-5.77-7.42-10.24a49.07 49.07 0 0 1-.21-9.77c.23-3-.79-4-3.77-3.76-2.65.24-5.35 0-8.41 0v18.09c0 5.51.05 11 0 16.55 0 3.79-.21 3.93-3.75 3.06-1.09-.27-2.17-.58-3.49-.94v-14.21l-7.36-.79c-1.79 9.94-7.16 14-16.34 11.76a19.34 19.34 0 0 1-8.68-4.75c-3.37-3.36-5.92-7.56-8.74-11.45-.94-1.28-1.28-2.49.64-3.55 1.75-1 2.73-.75 3.9.85a67.56 67.56 0 0 0 7.13 8.89c3.9 3.78 9.1 4.13 12.6 1.39 2-1.58 3.25-3.52 2.15-6.15s-3.37-3.55-6.07-3c-2.29.49-4.52 1.28-7.08 2a18.88 18.88 0 0 1-1.2-1.49c-3.67-5.4-4.8-5 2.64-7.37 1.7-.55 3.53-.66 5.28-1.08 2.49-.62 4.14-2.34 3.7-4.83-.48-2.68-2.92-3.47-5.3-2.79-3.19.91-6.25 2.3-9.44 3.51-5.59-6.58-5.76-6.63 2.66-9.85 5.28-2 10.37-1 14.32 3 3.73 3.83 5.51 8.46 3.24 13.89a2.53 2.53 0 0 0 .11 2c1.91 2.83 8.55 3.53 11.08 1.18a2.72 2.72 0 0 0 .7-1.75c.07-3 .05-6.08 0-9.12 0-.89-.1-1.77-.19-3.11-2 0-3.87.11-5.73 0a3.57 3.57 0 0 1-2.47-1.08 23 23 0 0 1-1.73-4.24 22.77 22.77 0 0 1 4.39-.88q65.88-.07 131.76 0h4c-.09-8.23-6.53-13.39-14.58-11.86a5.1 5.1 0 0 1-6.34-5.51c0-.74 1.24-1.84 2.08-2 9.54-2.43 14.71-.2 19.68 8.36 1.63 2.82 3.21 5.67 4.62 8.6a4 4 0 0 0 4.2 2.51c14-.09 27.93.1 41.89-.16 3.63-.07 4.13 2.35 5.15 4.55.12.25-1.22 1.64-2 1.76a39.09 39.09 0 0 1-5.81.06zm-152 0c0 5-.21 9.64.08 14.21.19 2.8 1.81 4.78 5.08 4.68s8.11-2.9 8.21-5.24a112.31 112.31 0 0 0-.06-11.46 3.07 3.07 0 0 0-2.16-2.09c-3.56-.2-7.15-.08-11.15-.08zm42.35 14c4.38 0 8.32.1 12.24-.09a2.79 2.79 0 0 0 1.95-1.89 100.27 100.27 0 0 0 0-10.11c0-.63-.91-1.72-1.43-1.74-4.22-.14-8.44-.08-12.78-.08zM593.47 970.25c-1.08-1-2.11-2.12-3.26-3.07a16.72 16.72 0 0 1-6.06-9.83c-1-5.14 1-9.47 6-10.91 3.81-1.1 7.94-1.15 11.94-1.49 1.77-.15 3.25.1 3.29-2.54s-1.42-2.76-3.41-2.75c-10.47 0-20.94.08-31.41 0-2.35 0-3.12.68-3.09 3.07.14 10.58.13 21.17.1 31.75 0 1.39.58 3.85-1.89 3.26-1.94-.46-5.49.51-5.23-3.59.13-2.2 0-4.42 0-6.64-3.58.42-6.78 1.21-9.93 1.06-6.14-.28-11-3.14-13.79-8.78-3.77-7.66 1.17-15.49 10.24-16.13 4.34-.3 8.71 0 13.21 0 1-3.45.7-3.89-3.14-3.9h-21.6c-2.56 0-5.15-2.18-4.94-4.58 0-.64 1.81-1.62 2.8-1.64 7.88-.13 15.76-.07 23.64-.08.89 0 1.77-.1 3.28-.19-1.75-4.06-2.74-8.49-6.35-10.57-2.41-1.39-6-1.15-9-.94-3.51.25-6.67-2.2-6.26-5.79a3 3 0 0 1 1.89-1.97c9-2.6 14.87-.23 19.59 7.83.85 1.46 1.7 2.91 2.5 4.39 4.83 8.93 2.14 7.12 12.2 7.13q74.31.12 148.64 0c5.29 0 5.29 0 7.63 5.88a38.87 38.87 0 0 1-5.2.37c-2.53-.16-3.33.82-3.28 3.32.2 10 .25 20 .31 30.06 0 5.51 0 5.54-5.19 4l-2.21-.63v-15.81H701.8c-.1.1-.37.24-.38.41-.2 2.53-.5 5.16-3.26 6.14s-5-.8-6.81-2.69c-2.06-2.14-4.57-4.31-2.75-7.84.34-.66 1-1.52 1.62-1.63 4.86-.87 4.22-4.47 4.19-7.91-.07-7.34 0-7.34-7.21-7.34-7.78 0-7.77 0-7.73 7.81.06 8.78.12 17.56.12 26.34 0 4.5-.1 4.55-4.28 3.49-1-.24-1.91-.58-3-.94V966c-7.58 2.54-14.36 1.79-20.13-4-5.71 6.57-12.52 8.22-20.21 5.07a16.38 16.38 0 0 1-6.42-4.68c-5.94-7.45-2.85-16.32 6.42-18.37 5.87-1.29 11.66-.86 16.42 3.6 2.58 2.42 4.69.09 6.55-1a5 5 0 0 0 1.64-4.13c-.34-2.27-2.27-2.88-4.61-2.86-12.16.1-24.32.13-36.48 0-2.78 0-3.41.89-3.36 3.49.16 8.61.07 8.56-8.7 8.64a35.24 35.24 0 0 0-7.69.71c-4.33 1-5.82 5.11-3.58 9 1.9 3.31 7.75 5.62 11.26 4.26a3.73 3.73 0 0 0 1.74-2.19c1-3 2.74-5 6-4.93 2.85 0 5.29 2.56 6 6 .63 3.25-1 5.36-3.67 6.86-.58.32-1.2.58-2.36 1.15l8.87 14.16c.42.67 1.25 1.36 1.19 2s-1.18 2-1.41 1.92c-2.54-1-5.51-1.21-6.82-4.32a37.42 37.42 0 0 0-3.14-5l-1.94 2.05a13.82 13.82 0 0 1-21.45-.83c-.21-.26-.6-.53-.6-.79 0-4.31-3.4-5.34-6.31-7.11s-4-4.54-3.64-8.1c.22-2-.49-4-.58-6a10 10 0 0 1 .79-2.79c2 1 3.61 1.73 5.06 2.69a6.26 6.26 0 0 1 3 6.94c-.28 1.59.37 3.35.59 5 1.66-.33 3.34-.63 5-1 1.3-.32 2.58-.76 3.88-1.16a8.32 8.32 0 0 1 .86.54c4.42 3.15 4.41 3.15.23 6.29a3.09 3.09 0 0 0-1 .9c-.47 1-.82 2.07-1.22 3.11 1.09.37 2.19 1.1 3.26 1 4.45-.23 8-4.1 8.65-9.18zm61.19-14.62c3.52 5.6 11.28 6.63 15.78 2.24a4.92 4.92 0 0 0 1.65-2.8c.17-5 .08-10 .08-15.1h-9.87c2.56 10.03 2.35 10.43-7.64 15.66zm46.6-15.63c0 4-.12 7.82.1 11.61a3 3 0 0 0 2.15 2 75.52 75.52 0 0 0 9.75 0c.76-.05 2.07-1.08 2.1-1.71.19-3.89.1-7.79.1-11.91zm-151.77 21.8a16.84 16.84 0 0 0 2 0c6-.79 9.75-4.45 9.11-9.13-.11-.8-1-2.15-1.47-2.14-4 .09-8.07 0-11.9.87a5.47 5.47 0 0 0-4.11 6.76c.88 3.18 3.51 3.72 6.37 3.64zm89.93-12.07c-2.36.84-5.14 1.2-7 2.7a7.94 7.94 0 0 0-2.24 5.75c.08 2.53 2.48 3.7 4.89 3.6a20.9 20.9 0 0 0 6.81-1.26c3.33-1.33 5.05-4.34 4.27-6.77-1-3.21-3.74-3.43-6.73-4.02z" transform="translate(-152.81 -22.44)"/>
    <path class="cls-12" d="M738.62 993c-1 1.35-1.74 2.4-2.65 3.66-3.31-2.75-6.33-5.22-9.31-7.74a14.43 14.43 0 0 0-11.21-3.57c-2.51.25-5.44-3.2-4.69-5.66.21-.7 1.61-1.4 2.52-1.48 5.72-.5 10.5 1.86 14.75 5.4 3.53 2.93 6.89 6.08 10.59 9.39z" transform="translate(-152.81 -22.44)"/>
    <path d="M356 939.7c4 0 7.58-.12 11.15.1a3.07 3.07 0 0 1 2.16 2.09 112.31 112.31 0 0 1 .06 11.46c-.1 2.34-4.8 5.14-8.21 5.24s-4.89-1.88-5.08-4.68c-.28-4.57-.08-9.17-.08-14.21zM398.36 953.67v-13.91c4.34 0 8.56-.06 12.78.08.52 0 1.4 1.11 1.43 1.74a100.27 100.27 0 0 1 0 10.11 2.79 2.79 0 0 1-1.95 1.89c-3.94.19-7.88.09-12.26.09zM654.66 955.63c10-5.23 10.2-5.64 7.64-15.66h9.87c0 5.07.09 10.09-.08 15.1a4.92 4.92 0 0 1-1.65 2.8c-4.5 4.39-12.26 3.36-15.78-2.24zM701.26 940h14.2c0 4.12.09 8-.1 11.91 0 .63-1.34 1.66-2.1 1.71a75.52 75.52 0 0 1-9.75 0 3 3 0 0 1-2.15-2c-.22-3.83-.1-7.62-.1-11.62zM549.49 961.8c-2.86.08-5.47-.46-6.36-3.65a5.47 5.47 0 0 1 4.11-6.76c3.83-.89 7.92-.78 11.9-.87.49 0 1.36 1.34 1.47 2.14.64 4.68-3.07 8.34-9.11 9.13a16.84 16.84 0 0 1-2.01.01zM639.42 949.73c3 .59 5.73.81 6.77 4 .78 2.43-.94 5.44-4.27 6.77a20.9 20.9 0 0 1-6.81 1.26c-2.41.1-4.81-1.07-4.89-3.6a7.94 7.94 0 0 1 2.24-5.75c1.82-1.48 4.6-1.84 6.96-2.68zM593.47 970.25l10.88 2.62c-.62 5.08-4.2 9-8.65 9.18-1.07.06-2.17-.67-3.26-1 .4-1 .75-2.11 1.22-3.11a3.09 3.09 0 0 1 1-.9c4.18-3.14 4.19-3.14-.23-6.29a8.32 8.32 0 0 0-.86-.54.57.57 0 0 1-.1.04z" transform="translate(-152.81 -22.44)"/>
  </g>
</svg>
