<?xml version="1.0" encoding="utf-8"?>
<!-- Generator: Adobe Illustrator 22.1.0, SVG Export Plug-In . SVG Version: 6.00 Build 0)  -->
<svg version="1.1" id="Layer_1" xmlns="http://www.w3.org/2000/svg" xmlns:xlink="http://www.w3.org/1999/xlink" x="0px" y="0px"
	 viewBox="0 0 1920 1080" style="enable-background:new 0 0 1920 1080;" xml:space="preserve">
<style type="text/css">
	.st0{fill:#FFE740;}
	.st1{fill:#7B59A5;}
	.st2{fill:none;stroke:#EF3F3C;stroke-width:4;stroke-miterlimit:10;}
	.st3{fill:none;stroke:#EE3A74;stroke-width:5;stroke-miterlimit:10;}
	.st4{fill:none;stroke:#F7EC1F;stroke-width:5;stroke-miterlimit:10;}
	.st5{fill:none;stroke:#5BCBF5;stroke-width:5;stroke-miterlimit:10;}
	.st6{fill:none;stroke:#6ABD45;stroke-width:5;stroke-miterlimit:10;}
	.st7{fill:#60C6F1;}
	.st8{fill:#F57E3A;}
	.st9{fill:#EE3289;}
</style>
<title>newArtboard 1</title>
<path class="st0" d="M2405,432.2L2405,432.2c0,30.8-25,55.8-55.8,55.8h-442.6c-30.8,0-55.8-25-55.8-55.8l0,0
	c0-30.8,25-55.8,55.8-55.8h442.6C2379.9,376.5,2404.9,401.5,2405,432.2z"/>
<path class="st1" d="M1779.5,680.9L1779.5,680.9c0,9.7-7.8,17.5-17.5,17.5h-184.2c-9.7,0-17.5-7.8-17.5-17.5l0,0
	c0-9.7,7.8-17.5,17.5-17.5H1762C1771.6,663.4,1779.4,671.2,1779.5,680.9z"/>
<ellipse transform="matrix(0.7071 -0.7071 0.7071 0.7071 141.8021 1326.9476)" class="st2" cx="1672.7" cy="492.3" rx="37.3" ry="37.3"/>
<line class="st3" x1="1778.2" y1="606.3" x2="2015.6" y2="606.3"/>
<line class="st4" x1="1448.9" y1="569.1" x2="1587.3" y2="569.1"/>
<line class="st5" x1="1435.2" y1="372.6" x2="1672.7" y2="372.6"/>
<line class="st6" x1="1659.3" y1="761.2" x2="1820.2" y2="761.2"/>
<circle class="st7" cx="307.9" cy="459.7" r="22"/>
<line class="st3" x1="-87.9" y1="493.9" x2="149.5" y2="493.9"/>
<line class="st6" x1="339.9" y1="583.4" x2="500.8" y2="583.4"/>
<line class="st6" x1="159.1" y1="365.6" x2="264.3" y2="365.6"/>
<path class="st8" d="M-11.7,583.4H88c12.7,0.1,22.9,10.3,22.9,22.9l0,0c-0.1,12.7-10.3,22.9-22.9,22.9h-99.7
	c-12.7-0.1-22.9-10.3-22.9-22.9l0,0C-34.6,593.6-24.3,583.4-11.7,583.4z"/>
<path class="st9" d="M270.4,679.7h99.7c12.7,0.1,22.9,10.3,22.9,22.9l0,0c-0.1,12.7-10.3,22.9-22.9,22.9h-99.7
	c-12.7-0.1-22.9-10.3-22.9-22.9l0,0C247.6,689.9,257.8,679.7,270.4,679.7z"/>
</svg>
