<svg id="Layer_1" data-name="Layer 1" xmlns="http://www.w3.org/2000/svg" viewBox="0 0 1080 461.4"><defs><style>.cls-1{fill:#4b469c;}.cls-10,.cls-11,.cls-12,.cls-13,.cls-2,.cls-3,.cls-5,.cls-7{fill:none;stroke-miterlimit:10;}.cls-13,.cls-2,.cls-7{stroke:#fcb34c;}.cls-10,.cls-2{stroke-width:5px;}.cls-3{stroke:#69bd45;}.cls-4{fill:#f064a5;}.cls-5{stroke:#1d0c43;}.cls-6{fill:#68c5ef;}.cls-8{fill:#e01f26;}.cls-9{fill:#fcb34c;}.cls-10{stroke:#f16022;}.cls-11{stroke:#5bba47;}.cls-11,.cls-13{stroke-width:3px;}.cls-12{stroke:#f36d23;}.cls-14{fill:#fdf05d;}.cls-15{fill:#f26957;}</style></defs><title>newArtboard 1 copy 4</title><rect class="cls-1" x="860.06" y="261.38" width="163.43" height="163.43" transform="translate(-55.34 241.07) rotate(-14.18)"/><rect class="cls-2" x="607.99" y="178.08" width="60.48" height="60.48" transform="translate(20.68 471.71) rotate(-41.18)"/><circle class="cls-3" cx="849.77" cy="286.44" r="66.92"/><circle class="cls-4" cx="684.41" cy="307.06" r="25.09"/><circle class="cls-5" cx="494.29" cy="257.59" r="16.19"/><polygon class="cls-6" points="569.75 319.41 493.58 338.41 587.18 394.64 569.75 319.41"/><rect class="cls-7" x="933.41" y="127.55" width="56.62" height="56.62" transform="translate(-3.49 288.4) rotate(-17.02)"/><circle class="cls-8" cx="868.67" cy="84" r="32.81"/><circle class="cls-9" cx="1094.59" cy="205.08" r="65.95"/><rect class="cls-10" x="1037.43" y="38.76" width="51.47" height="51.47" transform="translate(83.47 482.44) rotate(-26.57)"/><polygon class="cls-11" points="770.63 352.11 763.68 377.32 780.5 397.33 754.38 398.51 740.54 420.69 731.35 396.21 705.98 389.9 726.42 373.6 724.58 347.52 746.4 361.92 770.63 352.11"/><polygon class="cls-12" points="754.21 142 766.5 153.29 782.76 149.57 775.82 164.74 784.39 179.06 767.81 177.15 756.84 189.72 753.54 173.37 738.19 166.81 752.73 158.62 754.21 142"/><circle class="cls-13" cx="419.22" cy="394.1" r="12.22"/><polygon class="cls-14" points="341.83 129.49 494.6 171.68 556.61 92.32 341.83 129.49"/><rect class="cls-15" x="638.08" y="32.27" width="68.71" height="68.71" transform="translate(700.38 -608.52) rotate(86.71)"/><polygon class="cls-1" points="277.01 319.8 253.54 326.99 242.02 348.67 249.21 372.14 270.89 383.66 294.36 376.47 305.88 354.79 298.69 331.32 277.01 319.8"/></svg>