<?xml version="1.0" encoding="utf-8"?>
<!-- Generator: Adobe Illustrator 19.0.0, SVG Export Plug-In . SVG Version: 6.00 Build 0)  -->
<svg version="1.1" id="Layer_1" xmlns="http://www.w3.org/2000/svg" xmlns:xlink="http://www.w3.org/1999/xlink" x="0px" y="0px"
	 viewBox="0 0 1920 1080" style="enable-background:new 0 0 1920 1080;" xml:space="preserve">
<style type="text/css">
	.st0{fill:#4894EF;}
	.st1{fill:#FFFFFF;}
	.st2{fill:#4EA8FF;}
	.st3{fill:#1B8FFF;}
	.st4{fill:url(#SVGID_1_);}
</style>
<path class="st0" d="M1920,979.4L0,718.2V100.6l1920,231.2V979.4z"/>
<g>
	<g>
		<path class="st1" d="M1348.4,540.7c0-212.7-170.9-385.4-382.8-388.4v776.8C1177.5,926.1,1348.4,753.4,1348.4,540.7z M960,152.3
			c-214.5,0-388.4,173.9-388.4,388.4S745.6,929.1,960,929.1c1.9,0,3.7,0,5.5-0.1V152.3H960z"/>
	</g>
	<g>
		<path class="st2" d="M894.5,536.9c-32.5-8.7-63.2,0.6-94.8,10.1c8.3,18.8,20.3,30.3,37.9,33.6c24.9,4.7,50,7.8,75,11.2
			c11.9,1.6,16.3-4.6,15.4-16.2C926.7,557.7,914.4,542.2,894.5,536.9z"/>
		<path class="st3" d="M1041,536.9c-19.9,5.3-32.2,20.7-33.5,38.5c-0.9,11.6,3.5,17.9,15.4,16.2c25-3.4,50.2-6.6,75-11.2
			c17.6-3.3,29.6-14.8,37.9-33.6C1104.1,537.6,1073.5,528.3,1041,536.9L1041,536.9z"/>
		
			<linearGradient id="SVGID_1_" gradientUnits="userSpaceOnUse" x1="742.3791" y1="535.6542" x2="1261.1584" y2="535.6542" gradientTransform="matrix(1 0 0 -1 0 1080)">
			<stop  offset="0" style="stop-color:#4EA8FF"/>
			<stop  offset="1" style="stop-color:#1B8FFF"/>
		</linearGradient>
		<path class="st4" d="M1109.7,659.8c-0.3,0.2-0.6,0.3-0.9,0.4c-31.7,21.4-70.7,22.8-113.2,3c-9.7-4.5-18.7-7-27.9-7.2
			c-9.2,0.2-18.2,2.7-27.9,7.2c-62.9,29.2-117.9,12.2-153.3-47.3c-10.1-17.1-17.9-36-24.4-54.8c-12.3-35.8-18.5-72.8-18.3-111.7
			c30.6-3,58.6-4.5,86.3-8.7c40.6-6.2,79.6-3.5,118.2,11.7c5.7,2.3,12.6,3.6,19.4,3.7c6.9-0.2,13.7-1.5,19.4-3.7
			c38.6-15.2,77.6-17.9,118.2-11.7c27.3,4.2,54.7,5.7,84.5,8.6c0.5-0.1,1-0.1,1.5,0c95.2,11.5,78.5-59.7,36.9-115.5
			c-62.2-83.3-148.7-130.1-260.6-130.1c-188.2,0-340.8,152.5-340.8,340.8c0,188.2,152.5,340.8,340.8,340.8
			c96.2,0,170.8-40.9,233.8-103.9C1293.2,689.6,1269.1,569.2,1109.7,659.8L1109.7,659.8z"/>
	</g>
</g>
</svg>
