<?xml version="1.0" encoding="utf-8"?>
<!-- Generator: Adobe Illustrator 19.0.0, SVG Export Plug-In . SVG Version: 6.00 Build 0)  -->
<svg version="1.1" id="Layer_1" xmlns="http://www.w3.org/2000/svg" xmlns:xlink="http://www.w3.org/1999/xlink" x="0px" y="0px"
	 viewBox="515 0 2950 1080" style="enable-background:new 515 0 2950 1080;" xml:space="preserve">
<style type="text/css">
	.st0{fill:url(#SVGID_1_);}
	.st1{fill:#CECECE;}
	.st2{fill:#AAACAD;}
	.st3{fill:#C2C4C5;}
	.st4{fill:#2A292B;}
	.st5{fill:#FF8B39;}
	.st6{fill:#FF3F19;}
	.st7{fill:#52A2FF;}
	.st8{fill:#FFFFFF;}
	.st9{fill:#81F200;}
	.st10{fill:#FFF83F;}
	.st11{fill:#5FCCFF;}
	.st12{fill:#FF492C;}
	.st13{fill:#86FF3F;}
	.st14{fill:#729298;}
	.st15{fill:#729197;}
	.st16{fill:#719096;}
	.st17{fill:#708F95;}
	.st18{fill:#6F8E94;}
	.st19{fill:#E2E2E2;}
	.st20{fill:#328070;}
	.st21{fill:#6AD9C3;}
	.st22{fill:#00CFFF;}
	.st23{fill:#97D7FF;}
	.st24{fill:#FC70C0;}
	.st25{fill:#F9A818;}
	.st26{fill:#1D2120;}
	.st27{fill:#545657;}
	.st28{fill:#B03B1E;}
	.st29{fill:#C10000;}
	.st30{fill:#FCB200;}
</style>
<g>
	
		<linearGradient id="SVGID_1_" gradientUnits="userSpaceOnUse" x1="1699.6705" y1="505.6977" x2="1048.0303" y2="623.6082" gradientTransform="matrix(1 0 0 -1 0 1080)">
		<stop  offset="0" style="stop-color:#FFFFFF;stop-opacity:0"/>
		<stop  offset="1" style="stop-color:#595959;stop-opacity:0.3"/>
	</linearGradient>
	<polygon class="st0" points="1225.1,591.9 1856.4,951.6 2031.4,285.4 1272.7,381.4 	"/>
	<path class="st1" d="M2477.4,943.5l-8.3,82.5h295.4l-8.2-82.6L2477.4,943.5L2477.4,943.5z"/>
	<path class="st2" d="M2749.2,878.1h-264.9l-7,65.3h278.9L2749.2,878.1z"/>
	<path class="st3" d="M2233.6,372.4l801.4-63.3c18.9,0,34.3,15.3,34.3,34.3v527.1c0,18.9-15.3,34.3-34.3,34.3h-835
		c-18.9,0-34.3-15.3-34.3-34.3V414.9c0-2.6,25.2-47.3,26.9-48.6L2233.6,372.4z"/>
	<path class="st4" d="M3064.7,801.8h-899V342.6c0-18.5,15-33.5,33.5-33.5h836.6c18.5,0,33.5,15,33.5,33.5v454.5
		C3069.3,799.7,3067.2,801.8,3064.7,801.8L3064.7,801.8z"/>
	<path class="st3" d="M2783.6,1045h-350.8c-1.1,0-9.6-8.4-9.6-18.8s8.4-18.8,18.8-18.8h350.8c10.4,0,18.8,8.4,18.8,18.8
		C2811.8,1036.5,2803.3,1045,2783.6,1045L2783.6,1045z"/>
	<g>
		<rect x="2185.4" y="964.9" class="st5" width="26.4" height="26.4"/>
		<rect x="2211.8" y="964.9" class="st6" width="26.4" height="26.4"/>
		<rect x="2238.2" y="964.9" class="st7" width="26.4" height="26.4"/>
		<rect x="2185.4" y="991.3" class="st8" width="26.4" height="26.4"/>
		<rect x="2211.8" y="991.3" class="st9" width="26.4" height="26.4"/>
		<rect x="2238.2" y="991.3" class="st5" width="26.4" height="26.4"/>
		<rect x="2185.4" y="1017.8" class="st7" width="26.4" height="26.4"/>
		<rect x="2211.8" y="1017.8" class="st10" width="26.4" height="26.4"/>
		<rect x="2238.2" y="1017.8" class="st6" width="26.4" height="26.4"/>
	</g>
	<rect x="2311.4" y="480.2" class="st11" width="626.1" height="7.7"/>
	<rect x="2311.4" y="513.7" class="st12" width="455.3" height="7.7"/>
	<rect x="2311.4" y="546.4" class="st13" width="492.5" height="7.7"/>
	<g>
		<path class="st8" d="M2272.6,422.8c5.2,0,6-2.9,6-5.5c0-2.1-0.3-4.1-0.6-6.2c-0.3-2.1-0.6-4.1-0.6-6.1c0-6.8,4.4-9.7,10.7-9.7h1.5
			v4.1h-1.3c-4.3,0-5.8,2.4-5.8,6.3c0,1.7,0.2,3.5,0.5,5.2c0.3,1.8,0.5,3.6,0.5,5.6c0.1,4.7-2,7.1-5.3,8v0.1c3.3,0.8,5.4,3.3,5.3,8
			c0,2-0.2,3.8-0.5,5.6c-0.3,1.8-0.5,3.5-0.5,5.3c0,4.1,1.7,6.4,5.8,6.4h1.3v4.1h-1.5c-6.1,0-10.7-2.7-10.7-10.1c0-2,0.3-4.1,0.6-6
			c0.3-2,0.6-4,0.6-6c0-2.3-0.7-5.5-6-5.5V422.8L2272.6,422.8z"/>
	</g>
	<g>
		<path class="st8" d="M2289.6,616.9c-5.2,0-6,2.9-6,5.5c0,2.1,0.3,4.1,0.6,6.2c0.3,2.1,0.6,4.1,0.6,6.1c0,6.8-4.4,9.7-10.7,9.7
			h-1.5v-4.1h1.3c4.3,0,5.8-2.4,5.8-6.3c0-1.7-0.2-3.5-0.5-5.2c-0.3-1.8-0.5-3.6-0.5-5.6c-0.1-4.7,2-7.1,5.3-8V615
			c-3.3-0.8-5.4-3.3-5.3-8c0-2,0.2-3.8,0.5-5.6s0.5-3.5,0.5-5.3c0-4.1-1.7-6.4-5.8-6.4h-1.3v-4.1h1.5c6.1,0,10.7,2.7,10.7,10.1
			c0,2-0.3,4.1-0.6,6c-0.3,2-0.6,4-0.6,6c0,2.3,0.7,5.5,6,5.5V616.9z"/>
	</g>
	<g>
		<path class="st8" d="M2275.6,714.7c0.2,2.5,2.1,3.9,5.1,3.9c1.8,0,3.5-0.6,5.2-1.3l0.5,1.4c-1.8,0.9-4,1.5-5.9,1.5
			c-5.1,0-6.7-3.4-6.7-5.9c0-3.6,2.7-6.4,6.3-6.4c3.5,0,5.8,2.2,5.8,5.7c0,0.4,0,0.8-0.1,1.2h-10.2V714.7z M2284,713.1
			c0-2.2-1.8-3.7-3.9-3.7s-4.1,1.6-4.5,3.7H2284z"/>
		<path class="st8" d="M2295.7,708.2v1.6h-2.1l2.7,2.7l2.6-2.7h-1.7v-1.6h6v1.6h-2.1l-3.7,3.9l4.6,4.6h2v1.6h-6.7v-1.6h2.4l-3.4-3.4
			l-3.2,3.4h2.6v1.6h-6.5v-1.6h1.7l4.3-4.6l-3.9-3.9h-1.8v-1.6H2295.7z"/>
		<path class="st8" d="M2310.9,723.9h2.7v1.6h-6.1v-1.6h1.7v-14.1l-2.1,0.3l-0.3-1.4c0.9-0.1,1.8-0.2,2.5-0.8
			c0.2-0.3,0.4-0.5,0.8-0.5c0.8,0,0.8,0.8,0.8,1.4v0.3c1.1-0.7,1.9-1.2,3.4-1.2c3.4,0,5.5,2.9,5.5,6.1c0,4.7-4.1,6.2-5.7,6.2
			c-1.1,0-2.1-0.3-3.1-0.5v4.2H2310.9z M2310.9,717.9c0.8,0.5,1.7,0.7,2.7,0.7c2.6,0,4.3-2.2,4.3-4.7c0-2.2-1.2-4.5-3.7-4.5
			c-1.3,0-2.6,0.8-3.3,1.9V717.9z"/>
		<path class="st8" d="M2324.4,714c0-3.5,2.7-6.2,6.1-6.2s6.1,2.7,6.1,6.2s-2.7,6.2-6.1,6.2S2324.4,717.5,2324.4,714z M2334.8,714
			c0-2.5-1.7-4.6-4.3-4.6c-2.6,0-4.3,2.1-4.3,4.6s1.7,4.6,4.3,4.6C2333.1,718.6,2334.8,716.5,2334.8,714z"/>
		<path class="st8" d="M2346.1,718.3h5.1v1.6h-9.3v-1.6h2.5v-8.5l-2.1,0.3l-0.3-1.4c0.9-0.1,1.8-0.2,2.5-0.8
			c0.2-0.3,0.4-0.5,0.8-0.5c0.8,0,0.8,0.8,0.8,1.4v1.5c1.6-1.1,3-2.5,5.1-2.5c1.5,0,2.4,1,2.8,2.3l-1.7,0.7
			c-0.2-0.6-0.5-1.4-1.3-1.4c-1.4,0-3.8,2-4.9,3V718.3L2346.1,718.3z"/>
		<path class="st8" d="M2363.3,708.2h6.6v1.6h-6.6v5.6c0,1.5-0.2,3.2,1.8,3.2c1.5,0,3.4-0.5,4.9-0.9l0.6,1.5c-1.7,0.5-3.9,1-5.7,1
			c-2.1,0-3.4-1.2-3.4-4v-6.4h-4.1v-1.6h4.1v-3.1h1.7v3.1H2363.3z"/>
		<path class="st8" d="M2400.8,719.4c-1.1,0.5-1.9,0.8-3.1,0.8c-3.3,0-5.7-2.9-5.7-6.1c0-3.2,2.3-6.3,5.7-6.3c1,0,2.1,0.3,3.1,0.6
			v-4.7l-2.5,0.3l-0.3-1.4c0.9-0.2,2.3-0.1,3-0.8c0.2-0.3,0.4-0.5,0.8-0.5c0.8,0,0.8,0.8,0.8,1.4v15.5h2.2v1.6h-3.9v-0.4H2400.8z
			 M2400.8,710.2c-0.8-0.5-1.7-0.8-2.7-0.8c-2.7,0-4.3,2.1-4.3,4.7c0,2.3,1.6,4.5,4,4.5c1.1,0,2.1-0.4,3-1V710.2z"/>
		<path class="st8" d="M2410.9,714.7c0.2,2.5,2.1,3.9,5.1,3.9c1.8,0,3.5-0.6,5.2-1.3l0.5,1.4c-1.8,0.9-4,1.5-6,1.5
			c-5.1,0-6.7-3.4-6.7-5.9c0-3.6,2.7-6.4,6.3-6.4c3.5,0,5.8,2.2,5.8,5.7c0,0.4,0,0.8-0.1,1.2h-10.1V714.7z M2419.4,713.1
			c0-2.2-1.8-3.7-3.9-3.7c-2.1,0-4.1,1.6-4.5,3.7H2419.4z"/>
		<path class="st8" d="M2438.5,705.4c-1.4-1-3.2-1.5-4.9-1.5c-1.9,0-2,1.3-2,2.8v1.6h5.6v1.6h-5.6v8.5h5v1.6h-10v-1.6h3.3v-8.5h-4.1
			v-1.6h4.1v-1.7c0-3.2,1.2-4.2,3.8-4.2c2,0,4.3,0.6,5.9,1.7L2438.5,705.4z"/>
		<path class="st8" d="M2451.6,719c-1.7,0.7-3.3,1.2-5.1,1.2c-2.1,0-3.9-1-3.9-3.2c0-2.3,1.8-3.1,3.7-3.6c1.7-0.4,3.5-0.5,5.4-0.6
			v-0.7c0-1.6,0.3-2.7-1.9-2.7c-1.4,0-2.8,0.3-4,1.1v1.7h-1.7v-2.7c1.6-1,3.7-1.6,5.5-1.6c2.9,0,3.9,0.8,3.9,3.5v6.9h2.3v1.6h-4.1
			V719H2451.6z M2451.6,714.3c-1.6,0.1-3.4,0.2-4.9,0.6c-1.2,0.3-2.4,0.7-2.4,2.1c0,1.3,1.1,1.7,2.2,1.7c1.7,0,3.5-0.6,5-1.4v-3
			H2451.6z"/>
		<path class="st8" d="M2469.2,719.2c-1.4,0.6-2.5,1-4.1,1c-2.7,0-4.3-1.4-4.3-4.8v-5.6l-2.1,0.3l-0.3-1.4c0.9-0.1,1.8-0.2,2.5-0.8
			c0.2-0.3,0.4-0.5,0.8-0.5c0.8,0,0.8,0.8,0.8,1.4v6c0,2.9,0.6,3.8,2.5,3.8c1.4,0,2.9-0.6,4.1-1.2v-7.7l-2.1,0.3l-0.3-1.4
			c0.9-0.1,1.8-0.2,2.5-0.8c0.2-0.3,0.4-0.5,0.8-0.5c0.8,0,0.8,0.8,0.8,1.4v9.5h2.3v1.6h-4L2469.2,719.2L2469.2,719.2z"/>
		<path class="st8" d="M2483.9,718.3h4.7v1.6h-11.7v-1.6h5.3v-14.5c-1,0.2-1.9,0.3-2.9,0.3l-1.6,0.1l-0.3-1.6h1.8
			c0.9,0,2.5-0.1,3.2-0.8c0.2-0.3,0.4-0.4,0.8-0.4c0.9,0,0.8,0.8,0.8,1.5L2483.9,718.3L2483.9,718.3z"/>
		<path class="st8" d="M2498.7,708.2h6.6v1.6h-6.6v5.6c0,1.5-0.2,3.2,1.8,3.2c1.5,0,3.4-0.5,4.9-0.9l0.6,1.5c-1.7,0.5-3.9,1-5.7,1
			c-2.1,0-3.4-1.2-3.4-4v-6.4h-4.1v-1.6h4.1v-3.1h1.7L2498.7,708.2L2498.7,708.2z"/>
		<path class="st8" d="M2539.4,718.8c-1.6,0.9-3.7,1.4-5.5,1.4c-3.6,0-6.5-2.4-6.5-6.1c0-3.7,2.8-6.3,6.5-6.3c1.6,0,3.5,0.5,4.3,2
			l-0.1,1.4l0.1,1.4h-1.8v-0.8c0.1-1.8-0.9-2.5-2.7-2.5c-2.6,0-4.5,1.9-4.5,4.5c0,2.8,1.9,4.7,4.7,4.7c1.6,0,3.4-0.5,4.8-1.2
			L2539.4,718.8z"/>
		<path class="st8" d="M2544.3,714c0-3.5,2.7-6.2,6.1-6.2c3.5,0,6.1,2.7,6.1,6.2s-2.7,6.2-6.1,6.2
			C2547,720.2,2544.3,717.5,2544.3,714z M2554.8,714c0-2.5-1.7-4.6-4.3-4.6c-2.6,0-4.3,2.1-4.3,4.6s1.7,4.6,4.3,4.6
			C2553.1,718.6,2554.8,716.5,2554.8,714z"/>
		<path class="st8" d="M2563.2,718.3h1.2v1.6h-4.6v-1.6h1.7v-8.5l-2.1,0.3l-0.3-1.4c0.9-0.1,1.8-0.2,2.5-0.8
			c0.2-0.3,0.4-0.5,0.8-0.5c0.8,0,0.8,0.8,0.8,1.4c0.8-0.5,1.6-0.9,2.6-0.9c0.9,0,1.7,0.4,2.1,1.2c0.9-0.7,2.1-1.2,3.2-1.2
			c1.1,0,2.1,0.6,2.4,1.7c0.2,0.7,0.2,1.5,0.2,2.2v6.5h1.7v1.6h-4.6v-1.6h1.2v-6.5c0-0.8,0.2-2.3-1-2.3c-0.9,0-1.8,0.6-2.5,1.2v7.7
			h1.2v1.6h-4.1v-1.6h1.2v-6.5c0-0.7,0.1-2.3-1-2.3c-0.9,0-1.8,0.6-2.5,1.2v7.5H2563.2z"/>
		<path class="st8" d="M2581.6,723.9h2.7v1.6h-6.1v-1.6h1.7v-14.1l-2.1,0.3l-0.3-1.4c0.9-0.1,1.8-0.2,2.5-0.8
			c0.2-0.3,0.4-0.5,0.8-0.5c0.8,0,0.8,0.8,0.8,1.4v0.3c1.1-0.7,1.9-1.2,3.4-1.2c3.4,0,5.5,2.9,5.5,6.1c0,4.7-4.1,6.2-5.7,6.2
			c-1.1,0-2.1-0.3-3.1-0.5v4.2H2581.6z M2581.6,717.9c0.8,0.5,1.7,0.7,2.7,0.7c2.6,0,4.3-2.2,4.3-4.7c0-2.2-1.2-4.5-3.7-4.5
			c-1.3,0-2.6,0.8-3.3,1.9V717.9z"/>
		<path class="st8" d="M2595.1,714c0-3.5,2.7-6.2,6.1-6.2c3.5,0,6.1,2.7,6.1,6.2s-2.7,6.2-6.1,6.2
			C2597.7,720.2,2595.1,717.5,2595.1,714z M2605.5,714c0-2.5-1.7-4.6-4.3-4.6c-2.6,0-4.3,2.1-4.3,4.6s1.7,4.6,4.3,4.6
			C2603.8,718.6,2605.5,716.5,2605.5,714z"/>
		<path class="st8" d="M2614.8,718.3h1.9v1.6h-5.6v-1.6h1.9v-8.5l-2.1,0.3l-0.3-1.4c0.9-0.1,1.8-0.2,2.5-0.8
			c0.2-0.3,0.4-0.5,0.8-0.5c0.8,0,0.8,0.8,0.8,1.4v0.4c1.4-0.7,2.8-1.4,4.5-1.4c1.4,0,2.8,0.5,3.5,1.8c0.5,1,0.5,2.3,0.5,3.4v5.3
			h1.9v1.6h-5.6v-1.6h1.9v-5.2c0-1.7,0.1-3.6-2.2-3.6c-1.6,0-3.2,0.8-4.5,1.6L2614.8,718.3L2614.8,718.3z"/>
		<path class="st8" d="M2630.9,714.7c0.2,2.5,2.1,3.9,5.1,3.9c1.8,0,3.5-0.6,5.2-1.3l0.5,1.4c-1.8,0.9-4,1.5-6,1.5
			c-5.1,0-6.7-3.4-6.7-5.9c0-3.6,2.7-6.4,6.3-6.4c3.5,0,5.8,2.2,5.8,5.7c0,0.4,0,0.8-0.1,1.2h-10.1V714.7z M2639.3,713.1
			c0-2.2-1.8-3.7-3.9-3.7c-2.1,0-4.1,1.6-4.5,3.7H2639.3z"/>
		<path class="st8" d="M2648.6,718.3h1.9v1.6h-5.6v-1.6h1.9v-8.5l-2.1,0.3l-0.3-1.4c0.9-0.1,1.8-0.2,2.5-0.8
			c0.2-0.3,0.4-0.5,0.8-0.5c0.8,0,0.8,0.8,0.8,1.4v0.4c1.4-0.7,2.8-1.4,4.5-1.4c1.4,0,2.8,0.5,3.5,1.8c0.5,1,0.5,2.3,0.5,3.4v5.3
			h1.9v1.6h-5.6v-1.6h1.9v-5.2c0-1.7,0.1-3.6-2.2-3.6c-1.6,0-3.2,0.8-4.5,1.6L2648.6,718.3L2648.6,718.3z"/>
		<path class="st8" d="M2667.8,708.2h6.6v1.6h-6.6v5.6c0,1.5-0.2,3.2,1.8,3.2c1.5,0,3.4-0.5,4.9-0.9l0.6,1.5c-1.7,0.5-3.9,1-5.7,1
			c-2.1,0-3.4-1.2-3.4-4v-6.4h-4.1v-1.6h4.1v-3.1h1.7v3.1H2667.8z"/>
		<path class="st8" d="M2686.1,707.9c1.1,0,2,0.9,2,1.9c0,1.1-0.9,1.9-2,1.9c-1.1,0-2-0.8-2-1.9S2685,707.9,2686.1,707.9z
			 M2684.1,721c0.6-0.1,1.2-0.4,1.6-0.8c-0.9-0.1-1.7-0.8-1.7-1.7c0-1.1,0.8-1.9,1.9-1.9c1.2,0,2.1,1.1,2.1,2.3c0,2.1-2.1,3.5-4,3.9
			V721H2684.1z"/>
	</g>
	<g>
		<path class="st14" d="M1513.9,702.2c125.4,0,250.8,0,376.2,0c0,7.9,0,15.8,0,23.7c-125.4,0-250.8,0-376.2,0
			C1513.9,718,1513.9,710.1,1513.9,702.2z"/>
		<path class="st15" d="M1513.3,701.7c125.4,0,250.8,0,376.2,0c0,7.9,0,15.8,0,23.7c-125.4,0-250.8,0-376.2,0
			C1513.3,717.5,1513.3,709.6,1513.3,701.7z"/>
		<path class="st15" d="M1512.8,701.3c125.4,0,250.8,0,376.2,0c0,7.9,0,15.8,0,23.7c-125.4,0-250.8,0-376.2,0
			C1512.8,717.1,1512.8,709.2,1512.8,701.3z"/>
		<path class="st15" d="M1512.2,700.8c125.4,0,250.8,0,376.2,0c0,7.9,0,15.8,0,23.7c-125.4,0-250.8,0-376.2,0
			C1512.2,716.6,1512.2,708.7,1512.2,700.8z"/>
		<path class="st16" d="M1511.6,700.4c125.4,0,250.8,0,376.2,0c0,7.9,0,15.8,0,23.7c-125.4,0-250.8,0-376.2,0
			C1511.6,716.2,1511.6,708.3,1511.6,700.4z"/>
		<path class="st16" d="M1511.1,699.9c125.4,0,250.8,0,376.2,0c0,7.9,0,15.8,0,23.7c-125.4,0-250.8,0-376.2,0
			C1511.1,715.7,1511.1,707.8,1511.1,699.9z"/>
		<path class="st16" d="M1510.5,699.4c125.4,0,250.8,0,376.2,0c0,7.9,0,15.8,0,23.7c-125.4,0-250.8,0-376.2,0
			C1510.5,715.3,1510.5,707.4,1510.5,699.4z"/>
		<path class="st17" d="M1509.9,699c125.4,0,250.8,0,376.2,0c0,7.9,0,15.8,0,23.7c-125.4,0-250.8,0-376.2,0
			C1509.9,714.8,1509.9,706.9,1509.9,699z"/>
		<path class="st17" d="M1509.4,698.5c125.4,0,250.8,0,376.2,0c0,7.9,0,15.8,0,23.7c-125.4,0-250.8,0-376.2,0
			C1509.4,714.3,1509.4,706.4,1509.4,698.5z"/>
		<path class="st17" d="M1508.8,698.1c125.4,0,250.8,0,376.2,0c0,7.9,0,15.8,0,23.7c-125.4,0-250.8,0-376.2,0
			C1508.8,713.9,1508.8,706,1508.8,698.1z"/>
		<path class="st17" d="M1508.2,697.6c125.4,0,250.8,0,376.2,0c0,7.9,0,15.8,0,23.7c-125.4,0-250.8,0-376.2,0
			C1508.2,713.4,1508.2,705.5,1508.2,697.6z"/>
		<path class="st18" d="M1507.7,697.2c125.4,0,250.8,0,376.2,0c0,7.9,0,15.8,0,23.7c-125.4,0-250.8,0-376.2,0
			C1507.7,713,1507.7,705.1,1507.7,697.2z"/>
	</g>
	<rect x="1507.1" y="696.7" class="st18" width="376.2" height="23.7"/>
	<rect x="1507.1" y="696.7" class="st19" width="376.2" height="23.7"/>
	<g>
		
			<rect x="1698.8" y="543.3" transform="matrix(0.9936 -0.1127 0.1127 0.9936 -58.8567 197.3874)" class="st20" width="35.2" height="151.9"/>
		
			<rect x="1700.1" y="556.3" transform="matrix(0.9936 -0.1127 0.1127 0.9936 -53.4225 196.4509)" class="st21" width="21.5" height="28.9"/>
		
			<rect x="1708" y="594.7" transform="matrix(0.9936 -0.1127 0.1127 0.9936 -61.2703 197.0386)" class="st21" width="8.2" height="91.5"/>
		
			<rect x="1721.2" y="593.2" transform="matrix(0.9936 -0.1128 0.1128 0.9936 -61.0618 198.6908)" class="st21" width="8.2" height="91.5"/>
	</g>
	<g>
		
			<rect x="1735.4" y="567.2" transform="matrix(0.9936 -0.1127 0.1127 0.9936 -60.0194 201.1295)" class="st22" width="26.9" height="128.5"/>
		
			<rect x="1740.1" y="581.4" transform="matrix(0.9936 -0.1128 0.1128 0.9936 -56.8526 200.7559)" class="st23" width="11" height="42.8"/>
	</g>
	<rect x="1602.8" y="533.5" class="st24" width="42.1" height="163.2"/>
	<g>
		<rect x="1644.9" y="568.2" class="st25" width="26.9" height="128.5"/>
		<rect x="1644.9" y="568.2" class="st20" width="26.9" height="11.9"/>
		<rect x="1654.3" y="585.5" class="st19" width="8.1" height="102.9"/>
	</g>
	<g>
		<rect x="1671.7" y="497.9" class="st26" width="17.6" height="198.8"/>
		<rect x="1676" y="504.2" class="st26" width="9.1" height="16.6"/>
		<rect x="1676" y="526" class="st26" width="9.1" height="16.6"/>
		<rect x="1676" y="547.8" class="st26" width="9.1" height="16.6"/>
	</g>
	<path class="st26" d="M1570.2,660.8h1.3l0,0l0,0h2.5l0,0l0,0h2.3c-0.2-0.7-0.4-1.5-0.5-2.2c0,0,0,0,0-0.1c-0.4-1.8-0.8-3.7-1.1-5.6
		l0,0l0,0c-0.3-1.8-0.6-3.7-0.9-5.8l0,0c-0.1-0.4-0.1-0.8-0.2-1.3h-3.3V544.3l0,0c0.3,0,0.5,0.2,0.7,0.5c0.1,0.2,0.2,0.6,0.2,0.9
		l0,0c0,2.4,0.4,4.1,1,5.2c0.7,1.3,1.7,1.8,2.5,1.8c0.2,0,0.3,0.1,0.3,0.3l0,0v1.5l0,0c0,0.2-0.1,0.3-0.3,0.3h-1v2
		c0.7,0.2,1.1,0.5,1.1,0.9v0.3l0,0l0,0v1c0,1.4-0.7,2.4-1.7,3.1l-0.1,0.5c0.1,1.1,0.1,2.2,0.2,3.3l0,0l0,0l0,0l0,0l0.1,2.3l0,0l0,0
		l0,0l0,0l0,0c0.1,1.1,0.1,2.2,0.2,3.2l0,0l0,0c0.1,1.1,0.1,2.3,0.2,3.3l0,0l0,0l0,0c0.1,1.1,0.1,2.1,0.2,3.2v0.1
		c0.1,1.1,0.1,2.2,0.2,3.2l0,0l0,0l0,0c0.1,1.2,0.1,2.4,0.2,3.6l0,0l0,0l0,0l0,0c0.1,1.3,0.2,2.5,0.2,3.7l0,0l0,0l0,0
		c0.1,1,0.1,1.9,0.2,2.9l0,0l0,0c0.1,0.9,0.1,1.9,0.2,2.8l0,0l0,0l0,0v0.1c0.1,0.9,0.1,1.8,0.2,2.7l0,0l0,0l0,0l0,0l0,0
		c0.1,1.3,0.2,2.6,0.3,3.9l0,0c0.1,1.4,0.2,2.7,0.3,4l0,0l0,0l0,0l0,0l0,0c0.1,1.1,0.2,2.2,0.3,3.3c0.1,0.1,0.1,0.2,0.1,0.3
		s0,0.2-0.1,0.2c0.1,1.2,0.2,2.4,0.3,3.5l0,0l0,0c0.2,1.7,0.3,3.3,0.5,4.8l0,0l0,0l0,0l0,0c0.2,1.8,0.4,3.5,0.6,5.2l0,0l0,0l0,0l0,0
		l0,0l0,0l0,0c0.2,2,0.5,3.8,0.8,5.6l0,0l0,0l0,0c0.2,1.4,0.4,2.8,0.6,4.1h2.3l0,0c0.2,0,0.3,0.1,0.3,0.3l0,0v0.6l0,0l0,0l0,0l0,0
		l0,0l0,0l0,0l0,0l0,0l0,0l0,0l0,0l0,0l0,0l0,0l0,0l0,0l0,0l0,0l0,0l0,0l0,0l0,0l0,0l0,0l0,0l0,0l0,0l0,0l0,0l0,0l0,0l0,0l0,0l0,0
		l0,0l0,0l0,0l0,0l0,0l0,0l0,0l0,0l0,0l0,0l0,0l0,0l0,0l-1.5,5c2,9.3,4.5,15.2,7.8,21.7h1.7l0,0c0.2,0,0.3,0.1,0.3,0.3l0,0v3.6l0,0
		l0,0v3.5l2.1,3.6l0,0l0.7,1.1c0.1,0,0.2,0.2,0.2,0.3l0,0l3.9,6.4l0,0l2.9,4.9l0,0l3.3,5.4c0,0.1,0.1,0.1,0.1,0.2
		c0,0.1,0,0.8-0.1,1.7v4.7h-32.6V690h17.7c-0.1-0.5-0.3-1-0.4-1.5l0,0l0,0c-1.2-3.6-3.6-6.4-6.5-8.3l0,0l0,0
		c-0.4-0.3-0.9-0.5-1.3-0.8c-0.2-0.1-0.4-0.2-0.6-0.3l0,0l0,0l0,0l0,0c-2.7-1.3-5.8-2-8.8-2L1570.2,660.8L1570.2,660.8z
		 M1564.2,660.8h2.3l0,0l0,0h2.5l0,0l0,0h1.3v16.4l0,0c-3.1,0-6.1,0.7-8.9,2l0,0l0,0l0,0c-0.2,0.1-0.4,0.2-0.6,0.3
		c-0.5,0.2-0.9,0.5-1.3,0.8l0,0l0,0c-2.9,1.9-5.3,4.7-6.5,8.3l0,0l0,0c-0.2,0.5-0.3,1-0.4,1.5h17.8v6.7h-32.7v-6.3l0,0
		c0-0.1,0-0.1,0.1-0.2l3.2-5.4l0,0l2.9-4.9c0,0,0,0,0-0.1l4-6.6l0,0l0.7-1.2c0,0,0,0,0-0.1l2.1-3.6v-3.5l0,0l0,0l0,0l0,0l0,0v-3.6
		l0,0l0,0c0-0.2,0.1-0.3,0.3-0.3l0,0h1.7c0.4-0.8,0.8-1.6,1.2-2.4l0,0l0,0c2.4-4.9,4.3-9.8,5.9-16.5l0,0c0.2-0.9,0.4-1.8,0.6-2.7
		l-1.5-5l0,0l0,0l0,0l0,0l0,0l0,0l0,0l0,0l0,0l0,0l0,0l0,0l0,0l0,0l0,0l0,0l0,0l0,0l0,0l0,0l0,0l0,0l0,0l0,0l0,0l0,0l0,0l0,0l0,0
		l0,0l0,0l0,0l0,0l0,0l0,0l0,0l0,0l0,0l0,0l0,0l0,0l0,0l0,0l0,0l0,0l0,0l0,0l0,0v-0.6l0,0c0-0.2,0.1-0.3,0.3-0.3l0,0h2.3
		c1.1-6.2,2-13.8,2.9-23.5c0,0,0,0,0-0.1v-0.1c0.8-8.5,1.4-18.6,2.1-30.8l0,0l0,0c0.2-3.2,0.4-6.5,0.5-9.9l0,0c0,0,0,0,0-0.1
		c0.1-1.9,0.2-3.8,0.3-5.7l-0.1-0.4c-1-0.6-1.7-1.7-1.7-3.1v-1l0,0l0,0v-0.3c0-0.4,0.4-0.7,1.1-0.9v-2h-1l0,0
		c-0.2,0-0.3-0.1-0.3-0.3v-1.5l0,0c0-0.2,0.1-0.3,0.3-0.3c0.9,0,1.8-0.5,2.5-1.8c0.6-1.1,1-2.8,1-5.2l0,0c0-0.3,0.1-0.7,0.2-0.9
		c0.2-0.3,0.4-0.5,0.7-0.5v101.4h-3.3c-0.1,0.4-0.1,0.9-0.2,1.3l0,0l0,0c-0.3,2.1-0.6,4-0.9,5.8l0,0l0,0l0,0l0,0
		c-0.3,1.9-0.7,3.8-1.1,5.6l0,0l0,0C1564.5,659.3,1564.3,660,1564.2,660.8z"/>
	<path class="st19" d="M1804.8,647.1h53.7c13.6,0,24.8,11.2,24.8,24.8l0,0c0,13.6-11.2,24.8-24.8,24.8h-53.7
		c-13.6,0-24.8-11.2-24.8-24.8l0,0C1780,658.3,1791.2,647.1,1804.8,647.1z"/>
	<path class="st26" d="M1805,653.4h53.3c10.2,0,18.5,8.3,18.5,18.5l0,0c0,10.2-8.3,18.5-18.5,18.5H1805c-10.2,0-18.5-8.3-18.5-18.5
		l0,0C1786.6,661.8,1794.9,653.4,1805,653.4z"/>
	<g>
		<rect x="1795.3" y="662" class="st21" width="2.8" height="2.8"/>
		<rect x="1795.3" y="666.2" class="st21" width="2.8" height="2.8"/>
		<rect x="1795.3" y="670.5" class="st21" width="2.8" height="2.8"/>
		<rect x="1795.3" y="674.8" class="st21" width="2.8" height="2.8"/>
		<rect x="1795.3" y="679" class="st21" width="2.8" height="2.8"/>
		<rect x="1799.7" y="662" class="st21" width="2.8" height="2.8"/>
		<rect x="1799.7" y="666.2" class="st27" width="2.8" height="2.8"/>
		<rect x="1799.7" y="670.5" class="st27" width="2.8" height="2.8"/>
		<rect x="1799.7" y="674.8" class="st27" width="2.8" height="2.8"/>
		<rect x="1799.7" y="679" class="st21" width="2.8" height="2.8"/>
		<rect x="1808.4" y="662" class="st27" width="2.8" height="2.8"/>
		<rect x="1808.4" y="666.2" class="st27" width="2.8" height="2.8"/>
		<rect x="1808.4" y="670.5" class="st27" width="2.8" height="2.8"/>
		<rect x="1808.4" y="674.8" class="st27" width="2.8" height="2.8"/>
		<rect x="1808.4" y="679" class="st27" width="2.8" height="2.8"/>
		<rect x="1812.8" y="662" class="st21" width="2.8" height="2.8"/>
		<rect x="1812.8" y="666.2" class="st21" width="2.8" height="2.8"/>
		<rect x="1812.8" y="670.5" class="st21" width="2.8" height="2.8"/>
		<rect x="1812.8" y="674.8" class="st21" width="2.8" height="2.8"/>
		<rect x="1812.8" y="679" class="st21" width="2.8" height="2.8"/>
		<rect x="1817.1" y="662" class="st21" width="2.8" height="2.8"/>
		<rect x="1817.1" y="666.2" class="st27" width="2.8" height="2.8"/>
		<rect x="1817.1" y="670.5" class="st21" width="2.8" height="2.8"/>
		<rect x="1817.1" y="674.8" class="st27" width="2.8" height="2.8"/>
		<rect x="1817.1" y="679" class="st21" width="2.8" height="2.8"/>
		<rect x="1825.9" y="662" class="st27" width="2.8" height="2.8"/>
		<rect x="1825.9" y="666.2" class="st27" width="2.8" height="2.8"/>
		<rect x="1825.9" y="670.5" class="st27" width="2.8" height="2.8"/>
		<rect x="1825.9" y="674.8" class="st27" width="2.8" height="2.8"/>
		<rect x="1825.9" y="679" class="st27" width="2.8" height="2.8"/>
		<rect x="1830.2" y="662" class="st27" width="2.8" height="2.8"/>
		<rect x="1830.2" y="666.2" class="st21" width="2.8" height="2.8"/>
		<rect x="1830.2" y="670.5" class="st27" width="2.8" height="2.8"/>
		<rect x="1830.2" y="674.8" class="st21" width="2.8" height="2.8"/>
		<rect x="1830.2" y="679" class="st27" width="2.8" height="2.8"/>
		<rect x="1834.6" y="662" class="st27" width="2.8" height="2.8"/>
		<rect x="1834.6" y="666.2" class="st27" width="2.8" height="2.8"/>
		<rect x="1834.6" y="670.5" class="st27" width="2.8" height="2.8"/>
		<rect x="1834.6" y="674.8" class="st27" width="2.8" height="2.8"/>
		<rect x="1834.6" y="679" class="st27" width="2.8" height="2.8"/>
		<rect x="1843.3" y="662" class="st21" width="2.8" height="2.8"/>
		<rect x="1843.3" y="666.2" class="st27" width="2.8" height="2.8"/>
		<rect x="1843.3" y="670.5" class="st21" width="2.8" height="2.8"/>
		<rect x="1843.3" y="674.8" class="st27" width="2.8" height="2.8"/>
		<rect x="1843.3" y="679" class="st21" width="2.8" height="2.8"/>
		<rect x="1847.7" y="662" class="st21" width="2.8" height="2.8"/>
		<rect x="1847.7" y="666.2" class="st21" width="2.8" height="2.8"/>
		<rect x="1847.7" y="670.5" class="st27" width="2.8" height="2.8"/>
		<rect x="1847.7" y="674.8" class="st27" width="2.8" height="2.8"/>
		<rect x="1847.7" y="679" class="st21" width="2.8" height="2.8"/>
		<rect x="1852.1" y="662" class="st27" width="2.8" height="2.8"/>
		<rect x="1852.1" y="666.2" class="st27" width="2.8" height="2.8"/>
		<rect x="1852.1" y="670.5" class="st27" width="2.8" height="2.8"/>
		<rect x="1852.1" y="674.8" class="st27" width="2.8" height="2.8"/>
		<rect x="1852.1" y="679" class="st27" width="2.8" height="2.8"/>
		<rect x="1804" y="662" class="st21" width="2.8" height="2.8"/>
		<rect x="1804" y="666.2" class="st21" width="2.8" height="2.8"/>
		<rect x="1804" y="670.5" class="st21" width="2.8" height="2.8"/>
		<rect x="1804" y="674.8" class="st21" width="2.8" height="2.8"/>
		<rect x="1804" y="679" class="st21" width="2.8" height="2.8"/>
		<rect x="1821.5" y="662" class="st21" width="2.8" height="2.8"/>
		<rect x="1821.5" y="666.2" class="st21" width="2.8" height="2.8"/>
		<rect x="1821.5" y="670.5" class="st21" width="2.8" height="2.8"/>
		<rect x="1821.5" y="674.8" class="st21" width="2.8" height="2.8"/>
		<rect x="1821.5" y="679" class="st21" width="2.8" height="2.8"/>
		<rect x="1839" y="662" class="st21" width="2.8" height="2.8"/>
		<rect x="1839" y="666.2" class="st21" width="2.8" height="2.8"/>
		<rect x="1839" y="670.5" class="st27" width="2.8" height="2.8"/>
		<rect x="1839" y="674.8" class="st21" width="2.8" height="2.8"/>
		<rect x="1839" y="679" class="st21" width="2.8" height="2.8"/>
		<rect x="1856.4" y="662" class="st21" width="2.8" height="2.8"/>
		<rect x="1856.4" y="666.2" class="st21" width="2.8" height="2.8"/>
		<rect x="1856.4" y="670.5" class="st21" width="2.8" height="2.8"/>
		<rect x="1856.4" y="674.8" class="st27" width="2.8" height="2.8"/>
		<rect x="1856.4" y="679" class="st21" width="2.8" height="2.8"/>
		<rect x="1860.8" y="662" class="st21" width="2.8" height="2.8"/>
		<rect x="1860.8" y="666.2" class="st27" width="2.8" height="2.8"/>
		<rect x="1860.8" y="670.5" class="st21" width="2.8" height="2.8"/>
		<rect x="1860.8" y="674.8" class="st27" width="2.8" height="2.8"/>
		<rect x="1860.8" y="679" class="st21" width="2.8" height="2.8"/>
		<rect x="1865.2" y="662" class="st21" width="2.8" height="2.8"/>
		<rect x="1865.2" y="666.2" class="st27" width="2.8" height="2.8"/>
		<rect x="1865.2" y="670.5" class="st21" width="2.8" height="2.8"/>
		<rect x="1865.2" y="674.8" class="st21" width="2.8" height="2.8"/>
		<rect x="1865.2" y="679" class="st21" width="2.8" height="2.8"/>
	</g>
	<g>
		<g>
			
				<rect x="3187.1" y="888.8" transform="matrix(0.9086 -0.4177 0.4177 0.9086 -111.8247 1420.7463)" class="st20" width="5.9" height="154.2"/>
			<polygon class="st25" points="3155.1,897 3160.5,894.5 3153.8,887.2 			"/>
		</g>
		<g>
			
				<rect x="3244.6" y="891.5" transform="matrix(-0.8637 -0.504 0.504 -0.8637 5564.2261 3441.9543)" class="st25" width="5.9" height="154.2"/>
			<polygon class="st20" points="3288.9,903.5 3283.8,900.5 3291.1,893.8 			"/>
		</g>
		<g>
			
				<rect x="3204.2" y="883.8" transform="matrix(0.9802 -0.1981 0.1981 0.9802 -126.799 654.37)" class="st21" width="5.9" height="154.2"/>
			<polygon class="st25" points="3188.9,886 3194.8,884.8 3190,876.1 			"/>
		</g>
		<g>
			
				<rect x="3237.5" y="885.8" transform="matrix(0.9724 0.2332 -0.2332 0.9724 313.8939 -729.1459)" class="st28" width="5.9" height="154.2"/>
			<polygon class="st25" points="3255.4,887.2 3261.2,888.6 3260.5,878.7 			"/>
		</g>
		<g>
			<rect x="3171.3" y="942.2" class="st29" width="99.4" height="7.4"/>
			<rect x="3196.8" y="1036.8" class="st29" width="48.4" height="7.4"/>
			<polygon class="st29" points="3178.8,949.6 3204.3,1044.2 3196.8,1044.2 3171.3,949.6 			"/>
			<polygon class="st29" points="3263.3,949.6 3237.8,1044.2 3245.2,1044.2 3270.7,949.6 			"/>
			<g>
				<g>
					<polygon class="st29" points="3184.8,948.1 3209.1,1038.2 3205.2,1038.2 3180.9,948.1 					"/>
					<polygon class="st29" points="3193.6,948.1 3217.9,1038.2 3213.9,1038.2 3189.7,948.1 					"/>
					<polygon class="st29" points="3202.4,948.1 3226.7,1038.2 3222.7,1038.2 3198.4,948.1 					"/>
					<polygon class="st29" points="3211.2,948.1 3235.5,1038.2 3231.5,1038.2 3207.2,948.1 					"/>
					<polygon class="st29" points="3220,948.1 3242.3,1031.1 3240.4,1038.2 3240.3,1038.2 3216,948.1 					"/>
					<polygon class="st29" points="3228.7,948.1 3246.7,1014.8 3244.7,1022.2 3224.8,948.1 					"/>
					<polygon class="st29" points="3237.5,948.1 3251.1,998.5 3249.1,1005.9 3233.5,948.1 					"/>
					<polygon class="st29" points="3246.3,948.1 3255.5,982.3 3253.5,989.6 3242.3,948.1 					"/>
					<polygon class="st29" points="3255.1,948.1 3259.9,966 3257.9,973.3 3251.1,948.1 					"/>
					<polygon class="st29" points="3263.8,948.1 3264.3,949.7 3262.3,957.1 3259.9,948.1 					"/>
				</g>
				<g>
					<polygon class="st29" points="3255.9,948.1 3231.6,1038.2 3235.6,1038.2 3259.9,948.1 					"/>
					<polygon class="st29" points="3247.1,948.1 3222.8,1038.2 3226.8,1038.2 3251.1,948.1 					"/>
					<polygon class="st29" points="3238.4,948.1 3214.1,1038.2 3218,1038.2 3242.3,948.1 					"/>
					<polygon class="st29" points="3229.6,948.1 3205.3,1038.2 3209.3,1038.2 3233.5,948.1 					"/>
					<polygon class="st29" points="3220.8,948.1 3199.1,1028.7 3201.1,1036 3224.8,948.1 					"/>
					<polygon class="st29" points="3212,948.1 3194.7,1012.4 3196.7,1019.7 3216,948.1 					"/>
					<polygon class="st29" points="3203.2,948.1 3190.3,996.1 3192.3,1003.5 3207.2,948.1 					"/>
					<polygon class="st29" points="3194.5,948.1 3185.9,979.8 3187.9,987.2 3198.4,948.1 					"/>
					<polygon class="st29" points="3185.7,948.1 3181.5,963.6 3183.5,970.9 3189.7,948.1 					"/>
					<polygon class="st29" points="3179.1,954.6 3180.9,948.1 3177.4,948.1 					"/>
				</g>
			</g>
		</g>
	</g>
	<path class="st19" d="M857.2,885L724.9,629.8l-28.9,15l60,115.7l38.5,47.4l-87.4-168.8l6.9-3.6l104.7,202L857.2,885z M888.3,1015.5
		l28.9-15l-60-115.5l-38.5-47.4l87.5,168.8l-6.9,3.6L794.6,808l-38.5-47.4L888.3,1015.5z"/>
	<path class="st19" d="M1170.6,477.6l-12.1-30.2l-201.7,80.9v13.3l206.3-82.8l2.9,7.2l-209.2,84v13.3L1170.6,477.6z M956.9,528.4
		l-213.8,85.8l12.1,30.2l201.7-80.9v-13.3L750.6,633l-2.9-7.2l209.2-84V528.4z"/>
	<path class="st30" d="M698.6,615.8c13.2-13.5,34.9-13.7,48.4-0.5s13.7,34.9,0.5,48.4s-34.9,13.7-48.4,0.5S685.4,629.3,698.6,615.8z
		"/>
	<g>
		<path class="st30" d="M1275.4,509.5c12.2-12.7,11.7-33-1-45.1c-12.7-12.2-33-11.7-45.1,1c-12.2,12.7-11.7,33,1,45.1
			C1242.9,522.6,1263.2,522.2,1275.4,509.5z"/>
		<path class="st29" d="M1077.4,453.6c3.9-4,3.7-10.5-0.3-14.4s-10.5-3.7-14.4,0.3s-3.7,10.5,0.3,14.4
			C1067.1,457.8,1073.5,457.6,1077.4,453.6z"/>
		<path class="st19" d="M1070,446.6c2.6-11.6,6.8-22.6,12.3-32.8l66.9,5.3c28.2-31.7,78.4-47.1,130.7-36.5
			c-10.1,33-19.4,68.1-27.6,104.7c-8.2,36.6-14.8,72.3-19.7,106.5c-51.9-12.6-90.7-48.1-102.7-88.7l-62.8-23.7
			C1066.5,469.9,1067.4,458.2,1070,446.6z"/>
		<path class="st30" d="M1118.9,501c-5-23.5,4.8-62.6,19.1-82.8l11.2,0.9c-15.4,18-27.3,65.3-19.3,86L1118.9,501z"/>
	</g>
	<path class="st29" d="M723,665.1c13.9,0,25.3-11.4,25.3-25.3c0-13.9-11.4-25.3-25.3-25.3c-13.9,0-25.3,11.4-25.3,25.3
		C697.7,653.7,709.1,665.1,723,665.1z"/>
	<path class="st29" d="M898.9,963.6c45,0,81.5,36.5,81.5,81.5l0,0h-163l0,0C817.4,1000.1,853.9,963.6,898.9,963.6z"/>
</g>
</svg>
