<?xml version="1.0" encoding="utf-8"?>
<!-- Generator: Adobe Illustrator 19.0.0, SVG Export Plug-In . SVG Version: 6.00 Build 0)  -->
<svg version="1.1" id="Layer_1" xmlns="http://www.w3.org/2000/svg" xmlns:xlink="http://www.w3.org/1999/xlink" x="0px" y="0px"
	 viewBox="-419 0 1080 1080" style="enable-background:new -419 0 1080 1080;" xml:space="preserve">
<style type="text/css">
	.st0{fill:#664EFF;}
	.st1{fill:#565656;}
	.st2{fill:#FFFFFF;}
</style>
<circle class="st0" cx="121" cy="540" r="537.1"/>
<path class="st1" d="M-16.6,930.3c-0.4-0.1-0.8-0.3-1.2-0.5C-17.5,930-17,930.1-16.6,930.3z M-37.1,917.3
	c-21.7-21.7-21.7-56.9,0-78.6l94.8-94.8V484.4c0-30.7-24.9-55.6-55.6-55.6s-55.6,24.9-55.6,55.6v393.5c0,21.4,12.1,39.9,29.7,49.2
	C-28.5,924.6-33,921.3-37.1,917.3L-37.1,917.3z M-14.2,931.1l-0.9-0.3C-14.7,930.9-14.5,931-14.2,931.1z M-19,929.3
	c-0.5-0.2-1-0.4-1.6-0.7C-20.1,928.9-19.6,929.1-19,929.3z M-21.4,928.3c-0.6-0.3-1.3-0.6-1.9-0.9C-22.7,927.7-22.1,928-21.4,928.3z
	 M-11.7,931.8c-0.1,0-0.3-0.1-0.4-0.1C-11.9,931.7-11.8,931.8-11.7,931.8z M365.6,517.3c20.4,21.8,20,56-1.3,77.2l-93.2,93.2V1055
	c39.2-10.6,76.5-25.9,111.2-45.3V556.9C382.2,541.4,375.9,527.3,365.6,517.3L365.6,517.3z M-15,930.8c-0.5-0.2-1.1-0.4-1.6-0.5
	C-16.1,930.5-15.6,930.6-15,930.8z M-12.1,931.7l-2.1-0.6L-12.1,931.7z M-20.6,928.7c-0.3-0.1-0.5-0.2-0.8-0.4
	C-21.2,928.4-20.9,928.5-20.6,928.7z M-17.9,929.8c-0.4-0.2-0.8-0.3-1.2-0.5C-18.7,929.5-18.3,929.7-17.9,929.8z"/>
<path class="st1" d="M326.7,501.3c15.2,0,28.9,6.1,39,15.9c-0.4-0.5-0.9-0.9-1.3-1.4c-21.7-21.7-56.9-21.7-78.6,0l-228,228v134
	c0,30.7-24.9,55.6-55.6,55.6c-4.8,0-9.4-0.6-13.8-1.7c18.4,4.7,38.8-0.1,53.2-14.5l229.6-229.6V556.9
	C271.1,526.2,296,501.3,326.7,501.3L326.7,501.3z M-23.3,927.4c-0.1-0.1-0.3-0.1-0.4-0.2C-23.6,927.2-23.5,927.3-23.3,927.4z"/>
<path class="st1" d="M2.1,933.5c30.7,0,55.6-24.9,55.6-55.6v-134l-94.8,94.8c-21.7,21.7-21.7,56.9,0,78.6c4,4,8.5,7.3,13.3,9.9
	c0.1,0.1,0.3,0.1,0.4,0.2c0.6,0.3,1.3,0.6,1.9,0.9c0.3,0.1,0.5,0.2,0.8,0.4c0.5,0.2,1,0.5,1.6,0.7c0.4,0.2,0.8,0.3,1.2,0.5
	c0.4,0.2,0.8,0.3,1.2,0.5c0.5,0.2,1.1,0.4,1.6,0.5l0.9,0.3l2.1,0.6c0.1,0,0.2,0.1,0.4,0.1C-7.3,932.9-2.7,933.5,2.1,933.5z
	 M365.6,517.3c-10-9.9-23.8-15.9-39-15.9c-30.7,0-55.6,24.9-55.6,55.6v130.8l93.2-93.2C385.6,573.2,386,539,365.6,517.3L365.6,517.3
	z"/>
<path class="st2" d="M-44.9,906c-0.6-0.3-1.3-0.6-1.9-0.9C-46.2,905.4-45.6,905.7-44.9,906z M-42.5,907.1c-0.5-0.2-1-0.4-1.6-0.7
	C-43.6,906.6-43.1,906.9-42.5,907.1z M-37.7,908.8l-0.9-0.3C-38.2,908.6-37.9,908.7-37.7,908.8z M-40.1,908
	c-0.4-0.1-0.8-0.3-1.2-0.5C-40.9,907.7-40.5,907.9-40.1,908z M-35.2,909.5c-0.1,0-0.2-0.1-0.4-0.1
	C-35.4,909.5-35.3,909.5-35.2,909.5z M-38.5,908.5c-0.5-0.2-1.1-0.4-1.6-0.5C-39.6,908.2-39.1,908.4-38.5,908.5z M-35.5,909.4
	l-2.1-0.6C-37,909-36.3,909.2-35.5,909.4z M-46.8,905.1c-0.1-0.1-0.3-0.1-0.4-0.2C-47.1,904.9-47,905-46.8,905.1z M-41.3,907.5
	c-0.4-0.2-0.8-0.3-1.2-0.5C-42.1,907.2-41.7,907.4-41.3,907.5z M-44.1,906.4c-0.3-0.1-0.5-0.2-0.8-0.4
	C-44.6,906.1-44.4,906.3-44.1,906.4z"/>
<path class="st2" d="M342.1,496.2c-0.4-0.5-0.9-0.9-1.3-1.4c-21.7-21.7-56.9-21.7-78.6,0l-228,228V463.4c0-30.7-24.9-55.6-55.6-55.6
	S-77,432.7-77,463.4v393.5c0,21.4,12.1,39.9,29.7,49.2c0.1,0.1,0.3,0.1,0.4,0.2c0.6,0.3,1.3,0.6,1.9,0.9c0.3,0.1,0.5,0.2,0.8,0.4
	c0.5,0.2,1,0.5,1.6,0.7c0.4,0.2,0.8,0.3,1.2,0.5c0.4,0.2,0.8,0.3,1.2,0.5c0.5,0.2,1.1,0.4,1.6,0.5l0.9,0.3l2.1,0.6
	c0.1,0,0.2,0.1,0.4,0.1c18.4,4.7,38.8-0.1,53.2-14.5l229.6-229.6V1062c39-8.5,76.2-21.7,111.2-38.8V535.8
	C358.8,520.3,352.4,506.3,342.1,496.2L342.1,496.2z"/>
<g>
	<circle class="st1" cx="8.7" cy="284.1" r="86.6"/>
	<circle class="st2" cx="-13.3" cy="268.1" r="86.6"/>
	<circle class="st2" cx="-13.3" cy="268.1" r="86.6"/>
</g>
</svg>
