<?xml version="1.0" encoding="utf-8"?>
<!-- Generator: Adobe Illustrator 19.0.0, SVG Export Plug-In . SVG Version: 6.00 Build 0)  -->
<svg version="1.1" id="Layer_1" xmlns="http://www.w3.org/2000/svg" xmlns:xlink="http://www.w3.org/1999/xlink" x="0px" y="0px"
	 viewBox="60 -60 1200 1200" style="enable-background:new 60 -60 1200 1200;" xml:space="preserve">
<style type="text/css">
	.st0{fill:#664EFF;}
	.st1{fill:#565656;}
	.st2{fill:#FFFFFF;}
</style>
<g>
	<circle class="st0" cx="660" cy="540" r="568.5"/>
	<path class="st1" d="M514.3,953.2c-0.5-0.2-0.9-0.3-1.2-0.6C513.4,952.9,513.9,952.9,514.3,953.2z M492.6,939.4
		c-22.9-22.9-22.9-60.3,0-83.2L593,755.9V481.1c0-32.5-26.4-58.9-58.9-58.9s-58.9,26.4-58.9,58.9v416.5c0,22.6,12.8,42.2,31.5,52.1
		C501.7,947.2,497,943.6,492.6,939.4L492.6,939.4z M516.9,954l-0.9-0.3C516.3,953.8,516.6,954,516.9,954z M511.8,952.2
		c-0.6-0.2-1.1-0.5-1.7-0.8C510.6,951.7,511.2,951.9,511.8,952.2z M509.2,951.1c-0.6-0.3-1.4-0.6-2-0.9
		C507.8,950.4,508.5,950.8,509.2,951.1z M519.4,954.7c-0.2,0-0.3-0.2-0.5-0.2C519.3,954.7,519.4,954.7,519.4,954.7z M919,515.9
		c21.5,23,21.2,59.4-1.4,81.6l-98.7,98.7V1085c41.4-11.1,81-27.4,117.7-47.9V557.9C936.6,541.5,929.8,526.6,919,515.9L919,515.9z
		 M516,953.7c-0.6-0.2-1.2-0.5-1.7-0.6C514.9,953.4,515.4,953.5,516,953.7z M519.1,954.7l-2.3-0.6L519.1,954.7z M510.1,951.4
		c-0.3-0.2-0.6-0.2-0.9-0.5C509.5,951.1,509.8,951.3,510.1,951.4z M513,952.6c-0.5-0.2-0.9-0.3-1.2-0.6
		C512.1,952.3,512.5,952.5,513,952.6z"/>
	<path class="st1" d="M877.7,499c16.1,0,30.6,6.5,41.3,16.9c-0.5-0.6-0.9-0.9-1.4-1.5c-22.9-22.9-60.3-22.9-83.2,0L593.1,755.7
		v141.9c0,32.5-26.4,58.9-58.9,58.9c-5.1,0-9.9-0.6-14.6-1.8c19.4,5,41.1-0.2,56.3-15.4l243-243V558.1
		C818.9,525.4,845.3,499,877.7,499L877.7,499z M507.2,950.1c-0.2-0.2-0.3-0.2-0.5-0.2C506.9,949.9,507.1,950.1,507.2,950.1z"/>
	<path class="st1" d="M534.1,956.5c32.5,0,58.9-26.4,58.9-58.9V755.7L492.6,856.2c-22.9,22.9-22.9,60.3,0,83.2
		c4.2,4.2,9,7.7,14,10.5c0.2,0.2,0.3,0.2,0.5,0.2c0.6,0.3,1.4,0.6,2,0.9c0.3,0.2,0.6,0.2,0.9,0.5c0.6,0.2,1.1,0.6,1.7,0.8
		c0.5,0.2,0.9,0.3,1.2,0.6c0.5,0.2,0.9,0.3,1.2,0.6c0.6,0.2,1.2,0.5,1.7,0.6l0.9,0.3l2.3,0.6c0.2,0,0.2,0.2,0.5,0.2
		C524.1,955.9,529.1,956.5,534.1,956.5z M919,515.9c-10.5-10.5-25.2-16.9-41.3-16.9c-32.5,0-58.9,26.4-58.9,58.9v138.4l98.7-98.7
		C940,575.1,940.5,538.9,919,515.9L919,515.9z"/>
	<path class="st2" d="M484.3,927.5c-0.6-0.3-1.4-0.6-2-0.9C483,926.9,483.6,927.2,484.3,927.5z M486.9,928.7
		c-0.6-0.2-1.1-0.5-1.7-0.8C485.7,928.1,486.3,928.4,486.9,928.7z M492,930.5l-1.1-0.3C491.4,930.2,491.7,930.3,492,930.5z
		 M489.5,929.6c-0.5-0.2-0.9-0.3-1.2-0.6C488.6,929.3,489,929.4,489.5,929.6z M494.6,931.2c-0.2,0-0.2-0.2-0.5-0.2
		C494.4,931.2,494.6,931.2,494.6,931.2z M491.1,930.2c-0.6-0.2-1.2-0.5-1.7-0.6C489.9,929.7,490.5,930,491.1,930.2z M494.3,931.1
		l-2.3-0.6C492.8,930.6,493.5,930.8,494.3,931.1z M482.4,926.6c-0.2-0.2-0.3-0.2-0.5-0.2C482.1,926.3,482.1,926.4,482.4,926.6z
		 M488.1,929c-0.5-0.2-0.9-0.3-1.2-0.6C487.4,928.7,487.8,929,488.1,929z M485.3,927.9c-0.3-0.2-0.6-0.2-0.9-0.5
		C484.6,927.6,485,927.8,485.3,927.9z"/>
	<path class="st2" d="M894.1,493.6c-0.5-0.6-0.9-0.9-1.4-1.5c-22.9-22.9-60.3-22.9-83.2,0L568.1,733.6V459
		c0-32.5-26.4-58.9-58.9-58.9s-58.9,26.4-58.9,58.9v416.5c0,22.6,12.8,42.2,31.5,52.1c0.2,0.2,0.3,0.2,0.5,0.2
		c0.6,0.3,1.4,0.6,2,0.9c0.3,0.2,0.6,0.2,0.9,0.5c0.6,0.2,1.1,0.6,1.7,0.8c0.5,0.2,0.9,0.3,1.2,0.6c0.3,0.3,0.9,0.3,1.2,0.6
		c0.6,0.2,1.2,0.5,1.7,0.6l0.9,0.3l2.3,0.6c0.2,0,0.2,0.2,0.5,0.2c19.4,5,41.1-0.2,56.3-15.4l243.3-243.3v418.5
		c41.3-9,80.6-22.9,117.7-41.1v-516C911.7,519.2,904.9,504.3,894.1,493.6L894.1,493.6z"/>
	<g>
		<circle class="st1" cx="541.1" cy="269.1" r="91.7"/>
		<circle class="st2" cx="517.8" cy="252.1" r="91.7"/>
		<circle class="st2" cx="517.8" cy="252.1" r="91.7"/>
	</g>
</g>
</svg>
