<?xml version="1.0" encoding="utf-8"?>
<!-- Generator: Adobe Illustrator 19.0.0, SVG Export Plug-In . SVG Version: 6.00 Build 0)  -->
<svg version="1.1" id="Layer_1" xmlns="http://www.w3.org/2000/svg" xmlns:xlink="http://www.w3.org/1999/xlink" x="0px" y="0px"
	 viewBox="-420 0 1920 1080" enable-background="new -420 0 1920 1080" xml:space="preserve">
<polygon fill="#FFFFFF" points="-339.4,110.3 -420,100.6 -420,114.1 -341.6,114.1 "/>
<polygon fill="#FFDFEA" points="-300.6,185.2 -341.6,114.1 -420,114.1 -420,256.2 -341.6,256.2 "/>
<polygon fill="#FF5261" points="-300.6,327.2 -341.6,256.2 -420,256.2 -420,398.2 -341.6,398.2 "/>
<polygon fill="#FFCCE6" points="-300.6,469.3 -341.6,398.2 -420,398.2 -420,540.3 -341.6,540.3 "/>
<polygon fill="#FFFFFF" points="-300.6,185.2 -218.6,185.2 -186,128.8 -339.4,110.3 -341.6,114.1 "/>
<polygon fill="#FF8CA5" points="-177.6,256.2 -218.6,185.2 -300.6,185.2 -341.6,256.2 -300.6,327.2 -218.6,327.2 "/>
<polygon fill="#FFFFFF" points="-177.6,398.2 -218.6,327.2 -300.6,327.2 -341.6,398.2 -300.6,469.3 -218.6,469.3 "/>
<polygon fill="#FFDFEA" points="-218.6,469.3 -300.6,469.3 -341.6,540.3 -300.6,611.3 -218.6,611.3 -177.6,540.3 "/>
<polygon fill="#FFCCE6" points="-177.6,256.2 -95.6,256.2 -54.6,185.2 -79.7,141.6 -186,128.8 -218.6,185.2 "/>
<polygon fill="#FF2CA6" points="-177.6,398.2 -95.6,398.2 -54.6,327.2 -95.6,256.2 -177.6,256.2 -218.6,327.2 "/>
<polygon fill="#FF5261" points="-95.6,398.2 -177.6,398.2 -218.6,469.3 -177.6,540.3 -95.6,540.3 -54.6,469.3 "/>
<polygon fill="#FFFFFF" points="27.4,185.2 44,156.5 -79.7,141.6 -54.6,185.2 "/>
<polygon fill="#FF5261" points="27.4,327.2 68.4,256.2 27.4,185.2 -54.6,185.2 -95.6,256.2 -54.6,327.2 "/>
<polygon fill="#FFFFFF" points="27.4,469.3 68.4,398.2 27.4,327.2 -54.6,327.2 -95.6,398.2 -54.6,469.3 "/>
<polygon fill="#FF8CA5" points="68.4,540.3 27.4,469.3 -54.6,469.3 -95.6,540.3 -54.6,611.3 27.4,611.3 "/>
<polygon fill="#FFFFFF" points="68.4,256.2 150.4,256.2 191.5,185.2 184.7,173.4 44,156.5 27.4,185.2 "/>
<polygon fill="#FFDFEA" points="68.4,398.2 150.4,398.2 191.5,327.2 150.4,256.2 68.4,256.2 27.4,327.2 "/>
<polygon fill="#FF5261" points="68.4,540.3 150.4,540.3 191.5,469.3 150.4,398.2 68.4,398.2 27.4,469.3 "/>
<polygon fill="#FFFFFF" points="273.5,185.2 274,184.2 184.7,173.4 191.5,185.2 "/>
<polygon fill="#FF8CA5" points="273.5,327.2 314.5,256.2 273.5,185.2 191.5,185.2 150.4,256.2 191.5,327.2 "/>
<polygon fill="#FFFFFF" points="273.5,469.3 314.5,398.2 273.5,327.2 191.5,327.2 150.4,398.2 191.5,469.3 "/>
<polygon fill="#FFFFFF" points="191.5,469.3 150.4,540.3 191.5,611.3 273.5,611.3 314.5,540.3 273.5,469.3 "/>
<polygon fill="#FFFFFF" points="314.5,256.2 396.5,256.2 427.4,202.6 274,184.2 273.5,185.2 "/>
<polygon fill="#FFFFFF" points="314.5,398.2 396.5,398.2 437.5,327.2 396.5,256.2 314.5,256.2 273.5,327.2 "/>
<polygon fill="#FFFFFF" points="314.5,540.3 396.5,540.3 437.5,469.3 396.5,398.2 314.5,398.2 273.5,469.3 "/>
<polygon fill="#FFFFFF" points="519.5,327.2 560.5,256.2 537.2,215.9 427.4,202.6 396.5,256.2 437.5,327.2 "/>
<polygon fill="#FFFFFF" points="519.5,469.3 560.5,398.2 519.5,327.2 437.5,327.2 396.5,398.2 437.5,469.3 "/>
<polygon fill="#FFFFFF" points="519.5,469.3 437.5,469.3 396.5,540.3 437.5,611.3 519.5,611.3 560.5,540.3 "/>
<polygon fill="#FFFFFF" points="642.5,256.2 657.4,230.3 537.2,215.9 560.5,256.2 "/>
<polygon fill="#FFFFFF" points="642.5,398.2 683.5,327.2 642.5,256.2 560.5,256.2 519.5,327.2 560.5,398.2 "/>
<polygon fill="#FFFFFF" points="642.5,540.3 683.5,469.3 642.5,398.2 560.5,398.2 519.5,469.3 560.5,540.3 "/>
<polygon fill="#FFFFFF" points="683.5,327.2 765.5,327.2 806.5,256.2 801.6,247.7 657.4,230.3 642.5,256.2 "/>
<polygon fill="#FFFFFF" points="683.5,469.3 765.5,469.3 806.5,398.2 765.5,327.2 683.5,327.2 642.5,398.2 "/>
<polygon fill="#FFFFFF" points="765.5,469.3 683.5,469.3 642.5,540.3 683.5,611.3 765.5,611.3 806.5,540.3 "/>
<polygon fill="#FFFFFF" points="872,256.2 801.6,247.7 806.5,256.2 "/>
<polygon fill="#FFFFFF" points="888.5,256.2 872,256.2 889.8,258.3 "/>
<polygon fill="#FFFFFF" points="765.5,327.2 806.5,398.2 888.5,398.2 929.6,327.2 889.8,258.3 872,256.2 806.5,256.2 "/>
<polygon fill="#FFFFFF" points="806.5,540.3 888.5,540.3 929.6,469.3 888.5,398.2 806.5,398.2 765.5,469.3 "/>
<polygon fill="#FF5261" points="1011.6,327.2 1040.8,276.5 889.8,258.3 929.6,327.2 "/>
<polygon fill="#FFFFFF" points="1011.6,469.3 1052.6,398.2 1011.6,327.2 929.6,327.2 888.5,398.2 929.6,469.3 "/>
<polygon fill="#FFFFFF" points="888.5,540.3 929.6,611.3 1011.6,611.3 1052.6,540.3 1011.6,469.3 929.6,469.3 "/>
<polygon fill="#FF8CA5" points="1052.6,398.2 1134.6,398.2 1175.6,327.2 1154.2,290.2 1040.8,276.5 1011.6,327.2 "/>
<polygon fill="#FF5261" points="1011.6,469.3 1052.6,540.3 1134.6,540.3 1175.6,469.3 1134.6,398.2 1052.6,398.2 "/>
<polygon fill="#FF5261" points="1175.6,327.2 1257.6,327.2 1270.9,304.2 1154.2,290.2 "/>
<polygon fill="#FFCCE6" points="1134.6,398.2 1175.6,469.3 1257.6,469.3 1298.6,398.2 1257.6,327.2 1175.6,327.2 "/>
<polygon fill="#FFDFEA" points="1175.6,611.3 1257.6,611.3 1298.6,540.3 1257.6,469.3 1175.6,469.3 1134.6,540.3 "/>
<polygon fill="#FFFFFF" points="1257.6,327.2 1298.6,398.2 1380.6,398.2 1421.6,327.2 1418.6,322 1270.9,304.2 "/>
<polygon fill="#FF5261" points="1298.6,540.3 1380.6,540.3 1421.6,469.3 1380.6,398.2 1298.6,398.2 1257.6,469.3 "/>
<polygon fill="#FFFFFF" points="1461.9,327.2 1418.6,322 1421.6,327.2 "/>
<polygon fill="#FF2CA6" points="1380.6,398.2 1421.6,469.3 1500,469.3 1500,331.8 1461.9,327.2 1421.6,327.2 "/>
<polygon fill="#FF8CA5" points="1380.6,540.3 1421.6,611.3 1500,611.3 1500,469.3 1421.6,469.3 "/>
<polygon fill="#FF5261" points="-300.6,611.3 -341.6,540.3 -420,540.3 -420,682.3 -341.6,682.3 "/>
<polygon fill="#FFFFFF" points="-420,682.3 -420,718.2 -312.5,732.8 -341.6,682.3 "/>
<polygon fill="#FF2CA6" points="-177.6,682.3 -218.6,611.3 -300.6,611.3 -341.6,682.3 -312.5,732.8 -214.5,746.2 "/>
<polygon fill="#FFFFFF" points="-54.6,611.3 -95.6,540.3 -177.6,540.3 -218.6,611.3 -177.6,682.3 -95.6,682.3 "/>
<polygon fill="#FFDFEA" points="-54.6,753.3 -95.6,682.3 -177.6,682.3 -214.5,746.2 -62.4,766.9 "/>
<polygon fill="#FFFFFF" points="68.4,682.3 27.4,611.3 -54.6,611.3 -95.6,682.3 -54.6,753.3 27.4,753.3 "/>
<polygon fill="#FFFFFF" points="-54.6,753.3 -62.4,766.9 43.6,781.3 27.4,753.3 "/>
<polygon fill="#FFFFFF" points="68.4,540.3 27.4,611.3 68.4,682.3 150.4,682.3 191.5,611.3 150.4,540.3 "/>
<polygon fill="#FF2CA6" points="150.4,682.3 68.4,682.3 27.4,753.3 43.6,781.3 165.7,797.9 191.5,753.3 "/>
<polygon fill="#FFFFFF" points="191.5,611.3 150.4,682.3 191.5,753.3 273.5,753.3 314.5,682.3 273.5,611.3 "/>
<polygon fill="#FF2CA6" points="165.7,797.9 310.6,817.6 273.5,753.3 191.5,753.3 "/>
<polygon fill="#FFFFFF" points="396.5,540.3 314.5,540.3 273.5,611.3 314.5,682.3 396.5,682.3 437.5,611.3 "/>
<polygon fill="#FFFFFF" points="314.5,824.4 360.4,824.4 310.6,817.6 "/>
<polygon fill="#FFFFFF" points="437.5,753.3 396.5,682.3 314.5,682.3 273.5,753.3 310.6,817.6 360.4,824.4 396.5,824.4 "/>
<polygon fill="#FFFFFF" points="360.4,824.4 399.6,829.7 396.5,824.4 "/>
<polygon fill="#FFFFFF" points="519.5,611.3 437.5,611.3 396.5,682.3 437.5,753.3 519.5,753.3 560.5,682.3 "/>
<polygon fill="#FFFFFF" points="519.5,753.3 437.5,753.3 396.5,824.4 399.6,829.7 545.9,849.6 560.5,824.4 "/>
<polygon fill="#FFFFFF" points="560.5,540.3 519.5,611.3 560.5,682.3 642.5,682.3 683.5,611.3 642.5,540.3 "/>
<polygon fill="#FFFFFF" points="560.5,682.3 519.5,753.3 560.5,824.4 642.5,824.4 683.5,753.3 642.5,682.3 "/>
<polygon fill="#FFFFFF" points="560.5,824.4 545.9,849.6 666.6,866 642.5,824.4 "/>
<polygon fill="#FFFFFF" points="765.5,611.3 683.5,611.3 642.5,682.3 683.5,753.3 765.5,753.3 806.5,682.3 "/>
<polygon fill="#FFFFFF" points="765.5,753.3 683.5,753.3 642.5,824.4 666.6,866 774,880.6 806.5,824.4 "/>
<polygon fill="#FFFFFF" points="888.5,540.3 806.5,540.3 765.5,611.3 806.5,682.3 888.5,682.3 929.6,611.3 "/>
<polygon fill="#FFFFFF" points="888.5,682.3 806.5,682.3 765.5,753.3 806.5,824.4 888.5,824.4 929.6,753.3 "/>
<polygon fill="#FF5261" points="888.5,824.4 806.5,824.4 774,880.6 926.1,901.3 929.6,895.4 "/>
<polygon fill="#FF5261" points="929.6,611.3 888.5,682.3 929.6,753.3 1011.6,753.3 1052.6,682.3 1011.6,611.3 "/>
<polygon fill="#FFFFFF" points="929.6,753.3 888.5,824.4 929.6,895.4 1011.6,895.4 1052.6,824.4 1011.6,753.3 "/>
<polygon fill="#FFFFFF" points="929.6,895.4 926.1,901.3 1022.6,914.4 1011.6,895.4 "/>
<polygon fill="#FFFFFF" points="1052.6,682.3 1134.6,682.3 1175.6,611.3 1134.6,540.3 1052.6,540.3 1011.6,611.3 "/>
<polygon fill="#FFFFFF" points="1052.6,682.3 1011.6,753.3 1052.6,824.4 1134.6,824.4 1175.6,753.3 1134.6,682.3 "/>
<polygon fill="#FF5261" points="1134.6,824.4 1052.6,824.4 1011.6,895.4 1022.6,914.4 1154.2,932.4 1175.6,895.4 "/>
<polygon fill="#FF5261" points="1134.6,682.3 1175.6,753.3 1257.6,753.3 1298.6,682.3 1257.6,611.3 1175.6,611.3 "/>
<polygon fill="#FFFFFF" points="1175.6,753.3 1134.6,824.4 1175.6,895.4 1257.6,895.4 1298.6,824.4 1257.6,753.3 "/>
<polygon fill="#FFDFEA" points="1154.2,932.4 1289.6,950.8 1257.6,895.4 1175.6,895.4 "/>
<polygon fill="#FFFFFF" points="1257.6,611.3 1298.6,682.3 1380.6,682.3 1421.6,611.3 1380.6,540.3 1298.6,540.3 "/>
<polygon fill="#FF8CA5" points="1257.6,753.3 1298.6,824.4 1380.6,824.4 1421.6,753.3 1380.6,682.3 1298.6,682.3 "/>
<polygon fill="#FF2CA6" points="1380.6,824.4 1298.6,824.4 1257.6,895.4 1289.6,950.8 1382.4,963.4 1421.6,895.4 "/>
<polygon fill="#FFCCE6" points="1380.6,682.3 1421.6,753.3 1500,753.3 1500,611.3 1421.6,611.3 "/>
<polygon fill="#FF5261" points="1380.6,824.4 1421.6,895.4 1500,895.4 1500,753.3 1421.6,753.3 "/>
<polygon fill="#FFFFFF" points="1382.4,963.4 1500,979.4 1500,979.4 1500,895.4 1421.6,895.4 "/>
<circle fill="#FFFFFF" cx="540" cy="540" r="443.1"/>
<circle fill="#C9235C" cx="540" cy="540" r="382.7"/>
<g>
	<path fill="#FFFFFF" d="M731.9,332.9c1.1,23.3,0.3,81.5-31.5,114.7l-97.4-42.4c0,0,14.4-37.1,118.9-78.9
		C726.5,324.5,731.6,327.8,731.9,332.9L731.9,332.9z"/>
	<path fill="#FFFFFF" d="M582.4,398.8c0,0,37.2-39.4,141.2-72.9c0,0-72.4,34.8-109.6,81.4L582.4,398.8L582.4,398.8z"/>
</g>
<g>
	<path fill="#FFFFFF" d="M353.8,332.9c-1.1,23.3-0.3,81.5,31.5,114.7l97.4-42.4c0,0-14.4-37.1-118.9-78.9
		C359.3,324.5,354.1,327.8,353.8,332.9z"/>
	<path fill="#FFFFFF" d="M503.4,398.8c0,0-37.2-39.4-141.2-72.9c0,0,72.4,34.8,109.6,81.4L503.4,398.8L503.4,398.8z"/>
</g>
<ellipse fill="#FFFFFF" cx="540" cy="559.4" rx="205.8" ry="177.8"/>
<path fill="#C9235C" d="M538.9,641.7c-8,13.3-33,22.2-50.1,11.9c-17.1-10.3-29.3-28.9-21.3-42.2c8-13.3,38.9-22.9,70.1-3
	C554,618.8,546.9,628.4,538.9,641.7z"/>
<path fill="#C9235C" d="M542.6,641.7c8,13.3,33,22.2,50.1,11.9c17.1-10.3,29.3-28.9,21.3-42.2c-8-13.3-38.9-22.9-70.1-3
	C527.6,618.8,534.6,628.4,542.6,641.7L542.6,641.7z"/>
<g>
	<path fill="#C9235C" d="M518.6,588.1c0,0,5.4,19.4,16.7,29.9l6.8-23.1L518.6,588.1L518.6,588.1z"/>
	<path fill="#C9235C" d="M562.8,588.1c0,0-5.4,19.4-16.7,29.9l-6.8-23.1L562.8,588.1L562.8,588.1z"/>
	<path fill="#C9235C" d="M564.2,595.4l-5.4,6.9c-4.5,5.7-8.1,12.1-10.6,18.9l-2.2,5.8c-2.3,4.1-8.3,4.1-10.6,0
		c-3.1-11.2-8.8-21.4-16.7-29.9l-1.5-1.6c-0.9-1.6-1-3.2-0.6-4.7c0.9-3.1,4.1-4.9,7.3-4.2l8.6,1.8c5.5,1.2,11.1,1.2,16.5,0l8.6-1.8
		c3.1-0.7,6.4,1.1,7.3,4.2C565.2,592.2,565.1,593.9,564.2,595.4z"/>
</g>
<path fill="#C9235C" d="M577.2,631.8c0,0,84.1-31.3,149.8,32.6C727,664.3,666.6,609.7,577.2,631.8z"/>
<path fill="#C9235C" d="M579.4,625.7c0,0,79.1-42.2,152.8,12.3C732.2,638,665,591.9,579.4,625.7z"/>
<path fill="#C9235C" d="M576.4,637.9c0,0,87.2-21,144.9,50.2C721.3,688.1,667.8,626.7,576.4,637.9z M504.6,631.8
	c0,0-84.1-31.3-149.8,32.6C354.8,664.3,415.2,609.7,504.6,631.8z"/>
<path fill="#C9235C" d="M502.4,625.7c0,0-79.1-42.2-152.8,12.3C349.6,638,416.8,591.9,502.4,625.7z"/>
<path fill="#C9235C" d="M505.3,637.9c0,0-87.2-21-144.9,50.2C360.6,688.1,414,626.7,505.3,637.9z"/>
<path fill="#FFFFFF" d="M467.6,392.7l-6.3,2.2l39.2,38.6c22.2,22.3,64.3,22.2,86.4-0.1l36.4-37.2l-4.7-1.7
	c-17.7-6.5-49-13.3-75.7-13.3C517,381.4,488.1,385.5,467.6,392.7z M628.2,737.8c-0.8-0.4-3.3-0.1-6.6,0.6c-0.2-0.5-0.4-0.9-0.5-1.1
	c-1.6-1.2-23.2,4.2-33,7.9c-20.3,7.8-33.8,18.2-33.8,18.2c-5.5-1.3-23.3-1.3-28.8,0c0,0-13.5-10.4-33.8-18.2
	c-9.7-3.8-31.3-9.1-33-7.9c-0.1,0.2-0.3,0.6-0.5,1.1c-3.3-0.6-5.8-0.9-6.6-0.6c-1.6,2.8-7.7,29.3-7.9,42.2
	c-0.2,12.9,8.3,41.9,10.5,43c0.6,0.3,2.8-0.1,6.2-0.7c0.4,0.7,0.7,1.1,0.9,1.3c2.3,1.1,33.5-7.4,42.2-12.3
	c8.2-4.7,15.7-11.4,21.4-18.5v0.6c5.7,1.9,23.4,1.9,29.1,0v-0.6c5.7,7.1,13.5,13.8,21.8,18.5c8.6,4.9,40.3,13.5,42.5,12.3
	c0.2-0.1,0.6-0.6,0.9-1.3c3.3,0.7,5.7,1,6.2,0.7c2.2-1.1,10.7-30,10.5-43C635.9,767.1,629.8,740.6,628.2,737.8z"/>
</svg>
