<?xml version="1.0" encoding="utf-8"?>
<!-- Generator: Adobe Illustrator 19.0.0, SVG Export Plug-In . SVG Version: 6.00 Build 0)  -->
<svg version="1.1" id="Layer_1" xmlns="http://www.w3.org/2000/svg" xmlns:xlink="http://www.w3.org/1999/xlink" x="0px" y="0px"
	 viewBox="420 0 1920 1080" enable-background="new 420 0 1920 1080" xml:space="preserve">
<polygon fill="#FF8CA5" points="500.6,110.3 420,100.6 420,114.1 498.4,114.1 "/>
<polygon fill="#FFDFEA" points="539.4,185.2 498.4,114.1 420,114.1 420,256.2 498.4,256.2 "/>
<polygon fill="#FF5261" points="539.4,327.2 498.4,256.2 420,256.2 420,398.2 498.4,398.2 "/>
<polygon fill="#FFCCE6" points="539.4,469.3 498.4,398.2 420,398.2 420,540.3 498.4,540.3 "/>
<polygon fill="#FFFFFF" points="539.4,185.2 621.4,185.2 654,128.8 500.6,110.3 498.4,114.1 "/>
<polygon fill="#FF8CA5" points="662.4,256.2 621.4,185.2 539.4,185.2 498.4,256.2 539.4,327.2 621.4,327.2 "/>
<polygon fill="#FFFFFF" points="662.4,398.2 621.4,327.2 539.4,327.2 498.4,398.2 539.4,469.3 621.4,469.3 "/>
<polygon fill="#FFDFEA" points="621.4,469.3 539.4,469.3 498.4,540.3 539.4,611.3 621.4,611.3 662.4,540.3 "/>
<polygon fill="#FFCCE6" points="662.4,256.2 744.4,256.2 785.4,185.2 760.3,141.6 654,128.8 621.4,185.2 "/>
<polygon fill="#FF2CA6" points="662.4,398.2 744.4,398.2 785.4,327.2 744.4,256.2 662.4,256.2 621.4,327.2 "/>
<polygon fill="#FF5261" points="744.4,398.2 662.4,398.2 621.4,469.3 662.4,540.3 744.4,540.3 785.4,469.3 "/>
<polygon fill="#FFFFFF" points="867.4,185.2 884,156.5 760.3,141.6 785.4,185.2 "/>
<polygon fill="#FF5261" points="867.4,327.2 908.4,256.2 867.4,185.2 785.4,185.2 744.4,256.2 785.4,327.2 "/>
<polygon fill="#FFFFFF" points="867.4,469.3 908.4,398.2 867.4,327.2 785.4,327.2 744.4,398.2 785.4,469.3 "/>
<polygon fill="#FF8CA5" points="908.4,540.3 867.4,469.3 785.4,469.3 744.4,540.3 785.4,611.3 867.4,611.3 "/>
<polygon fill="#FFFFFF" points="908.4,256.2 990.4,256.2 1031.5,185.2 1024.7,173.4 884,156.5 867.4,185.2 "/>
<polygon fill="#FFDFEA" points="908.4,398.2 990.4,398.2 1031.5,327.2 990.4,256.2 908.4,256.2 867.4,327.2 "/>
<polygon fill="#FF5261" points="908.4,540.3 990.4,540.3 1031.5,469.3 990.4,398.2 908.4,398.2 867.4,469.3 "/>
<polygon fill="#FFFFFF" points="1113.5,185.2 1114,184.2 1024.7,173.4 1031.5,185.2 "/>
<polygon fill="#FF8CA5" points="1113.5,327.2 1154.5,256.2 1113.5,185.2 1031.5,185.2 990.4,256.2 1031.5,327.2 "/>
<polygon fill="#FFFFFF" points="1113.5,469.3 1154.5,398.2 1113.5,327.2 1031.5,327.2 990.4,398.2 1031.5,469.3 "/>
<polygon fill="#FFFFFF" points="1031.5,469.3 990.4,540.3 1031.5,611.3 1113.5,611.3 1154.5,540.3 1113.5,469.3 "/>
<polygon fill="#FFFFFF" points="1154.5,256.2 1236.5,256.2 1267.4,202.6 1114,184.2 1113.5,185.2 "/>
<polygon fill="#FFFFFF" points="1154.5,398.2 1236.5,398.2 1277.5,327.2 1236.5,256.2 1154.5,256.2 1113.5,327.2 "/>
<polygon fill="#FFFFFF" points="1154.5,540.3 1236.5,540.3 1277.5,469.3 1236.5,398.2 1154.5,398.2 1113.5,469.3 "/>
<polygon fill="#FFFFFF" points="1359.5,327.2 1400.5,256.2 1377.2,215.9 1267.4,202.6 1236.5,256.2 1277.5,327.2 "/>
<polygon fill="#FFFFFF" points="1359.5,469.3 1400.5,398.2 1359.5,327.2 1277.5,327.2 1236.5,398.2 1277.5,469.3 "/>
<polygon fill="#FFFFFF" points="1359.5,469.3 1277.5,469.3 1236.5,540.3 1277.5,611.3 1359.5,611.3 1400.5,540.3 "/>
<polygon fill="#FFFFFF" points="1482.5,256.2 1497.4,230.3 1377.2,215.9 1400.5,256.2 "/>
<polygon fill="#FFFFFF" points="1482.5,398.2 1523.5,327.2 1482.5,256.2 1400.5,256.2 1359.5,327.2 1400.5,398.2 "/>
<polygon fill="#FFFFFF" points="1482.5,540.3 1523.5,469.3 1482.5,398.2 1400.5,398.2 1359.5,469.3 1400.5,540.3 "/>
<polygon fill="#FFFFFF" points="1523.5,327.2 1605.5,327.2 1646.5,256.2 1641.6,247.7 1497.4,230.3 1482.5,256.2 "/>
<polygon fill="#FFFFFF" points="1523.5,469.3 1605.5,469.3 1646.5,398.2 1605.5,327.2 1523.5,327.2 1482.5,398.2 "/>
<polygon fill="#FFFFFF" points="1605.5,469.3 1523.5,469.3 1482.5,540.3 1523.5,611.3 1605.5,611.3 1646.5,540.3 "/>
<polygon fill="#FFFFFF" points="1712,256.2 1641.6,247.7 1646.5,256.2 "/>
<polygon fill="#FFFFFF" points="1728.5,256.2 1712,256.2 1729.8,258.3 "/>
<polygon fill="#FFFFFF" points="1605.5,327.2 1646.5,398.2 1728.5,398.2 1769.6,327.2 1729.8,258.3 1712,256.2 1646.5,256.2 "/>
<polygon fill="#FFFFFF" points="1646.5,540.3 1728.5,540.3 1769.6,469.3 1728.5,398.2 1646.5,398.2 1605.5,469.3 "/>
<polygon fill="#FFFFFF" points="1851.6,327.2 1880.8,276.5 1729.8,258.3 1769.6,327.2 "/>
<polygon fill="#FFFFFF" points="1851.6,469.3 1892.6,398.2 1851.6,327.2 1769.6,327.2 1728.5,398.2 1769.6,469.3 "/>
<polygon fill="#FFFFFF" points="1728.5,540.3 1769.6,611.3 1851.6,611.3 1892.6,540.3 1851.6,469.3 1769.6,469.3 "/>
<polygon fill="#FF8CA5" points="1892.6,398.2 1974.6,398.2 2015.6,327.2 1994.2,290.2 1880.8,276.5 1851.6,327.2 "/>
<polygon fill="#FFFFFF" points="1851.6,469.3 1892.6,540.3 1974.6,540.3 2015.6,469.3 1974.6,398.2 1892.6,398.2 "/>
<polygon fill="#FF5261" points="2015.6,327.2 2097.6,327.2 2110.9,304.2 1994.2,290.2 "/>
<polygon fill="#FFCCE6" points="1974.6,398.2 2015.6,469.3 2097.6,469.3 2138.6,398.2 2097.6,327.2 2015.6,327.2 "/>
<polygon fill="#FFDFEA" points="2015.6,611.3 2097.6,611.3 2138.6,540.3 2097.6,469.3 2015.6,469.3 1974.6,540.3 "/>
<polygon fill="#FFFFFF" points="2097.6,327.2 2138.6,398.2 2220.6,398.2 2261.6,327.2 2258.6,322 2110.9,304.2 "/>
<polygon fill="#FF5261" points="2138.6,540.3 2220.6,540.3 2261.6,469.3 2220.6,398.2 2138.6,398.2 2097.6,469.3 "/>
<polygon fill="#FF5261" points="2301.9,327.2 2258.6,322 2261.6,327.2 "/>
<polygon fill="#FF2CA6" points="2220.6,398.2 2261.6,469.3 2340,469.3 2340,331.8 2301.9,327.2 2261.6,327.2 "/>
<polygon fill="#FF8CA5" points="2220.6,540.3 2261.6,611.3 2340,611.3 2340,469.3 2261.6,469.3 "/>
<polygon fill="#FF5261" points="539.4,611.3 498.4,540.3 420,540.3 420,682.3 498.4,682.3 "/>
<polygon fill="#FFFFFF" points="420,682.3 420,718.2 527.5,732.8 498.4,682.3 "/>
<polygon fill="#FF2CA6" points="662.4,682.3 621.4,611.3 539.4,611.3 498.4,682.3 527.5,732.8 625.5,746.2 "/>
<polygon fill="#FFFFFF" points="785.4,611.3 744.4,540.3 662.4,540.3 621.4,611.3 662.4,682.3 744.4,682.3 "/>
<polygon fill="#FFDFEA" points="785.4,753.3 744.4,682.3 662.4,682.3 625.5,746.2 777.6,766.9 "/>
<polygon fill="#FFFFFF" points="908.4,682.3 867.4,611.3 785.4,611.3 744.4,682.3 785.4,753.3 867.4,753.3 "/>
<polygon fill="#FFFFFF" points="785.4,753.3 777.6,766.9 883.6,781.3 867.4,753.3 "/>
<polygon fill="#FFFFFF" points="908.4,540.3 867.4,611.3 908.4,682.3 990.4,682.3 1031.5,611.3 990.4,540.3 "/>
<polygon fill="#FFDFEA" points="990.4,682.3 908.4,682.3 867.4,753.3 883.6,781.3 1005.7,797.9 1031.5,753.3 "/>
<polygon fill="#FFFFFF" points="1031.5,611.3 990.4,682.3 1031.5,753.3 1113.5,753.3 1154.5,682.3 1113.5,611.3 "/>
<polygon fill="#FFFFFF" points="1005.7,797.9 1150.6,817.6 1113.5,753.3 1031.5,753.3 "/>
<polygon fill="#FFFFFF" points="1236.5,540.3 1154.5,540.3 1113.5,611.3 1154.5,682.3 1236.5,682.3 1277.5,611.3 "/>
<polygon fill="#FFFFFF" points="1154.5,824.4 1200.4,824.4 1150.6,817.6 "/>
<polygon fill="#FFFFFF" points="1277.5,753.3 1236.5,682.3 1154.5,682.3 1113.5,753.3 1150.6,817.6 1200.4,824.4 1236.5,824.4 "/>
<polygon fill="#FFFFFF" points="1200.4,824.4 1239.6,829.7 1236.5,824.4 "/>
<polygon fill="#FFFFFF" points="1359.5,611.3 1277.5,611.3 1236.5,682.3 1277.5,753.3 1359.5,753.3 1400.5,682.3 "/>
<polygon fill="#FFFFFF" points="1359.5,753.3 1277.5,753.3 1236.5,824.4 1239.6,829.7 1385.9,849.6 1400.5,824.4 "/>
<polygon fill="#FFFFFF" points="1400.5,540.3 1359.5,611.3 1400.5,682.3 1482.5,682.3 1523.5,611.3 1482.5,540.3 "/>
<polygon fill="#FFFFFF" points="1400.5,682.3 1359.5,753.3 1400.5,824.4 1482.5,824.4 1523.5,753.3 1482.5,682.3 "/>
<polygon fill="#FFFFFF" points="1400.5,824.4 1385.9,849.6 1506.6,866 1482.5,824.4 "/>
<polygon fill="#FFFFFF" points="1605.5,611.3 1523.5,611.3 1482.5,682.3 1523.5,753.3 1605.5,753.3 1646.5,682.3 "/>
<polygon fill="#FFFFFF" points="1605.5,753.3 1523.5,753.3 1482.5,824.4 1506.6,866 1614,880.6 1646.5,824.4 "/>
<polygon fill="#FFFFFF" points="1728.5,540.3 1646.5,540.3 1605.5,611.3 1646.5,682.3 1728.5,682.3 1769.6,611.3 "/>
<polygon fill="#FFFFFF" points="1728.5,682.3 1646.5,682.3 1605.5,753.3 1646.5,824.4 1728.5,824.4 1769.6,753.3 "/>
<polygon fill="#FFFFFF" points="1728.5,824.4 1646.5,824.4 1614,880.6 1766.1,901.3 1769.6,895.4 "/>
<polygon fill="#FFFFFF" points="1769.6,611.3 1728.5,682.3 1769.6,753.3 1851.6,753.3 1892.6,682.3 1851.6,611.3 "/>
<polygon fill="#FFFFFF" points="1769.6,753.3 1728.5,824.4 1769.6,895.4 1851.6,895.4 1892.6,824.4 1851.6,753.3 "/>
<polygon fill="#FFFFFF" points="1769.6,895.4 1766.1,901.3 1862.6,914.4 1851.6,895.4 "/>
<polygon fill="#FFFFFF" points="1892.6,682.3 1974.6,682.3 2015.6,611.3 1974.6,540.3 1892.6,540.3 1851.6,611.3 "/>
<polygon fill="#FFFFFF" points="1892.6,682.3 1851.6,753.3 1892.6,824.4 1974.6,824.4 2015.6,753.3 1974.6,682.3 "/>
<polygon fill="#FF5261" points="1974.6,824.4 1892.6,824.4 1851.6,895.4 1862.6,914.4 1994.2,932.4 2015.6,895.4 "/>
<polygon fill="#FF5261" points="1974.6,682.3 2015.6,753.3 2097.6,753.3 2138.6,682.3 2097.6,611.3 2015.6,611.3 "/>
<polygon fill="#FFFFFF" points="2015.6,753.3 1974.6,824.4 2015.6,895.4 2097.6,895.4 2138.6,824.4 2097.6,753.3 "/>
<polygon fill="#FFDFEA" points="1994.2,932.4 2129.6,950.8 2097.6,895.4 2015.6,895.4 "/>
<polygon fill="#FFFFFF" points="2097.6,611.3 2138.6,682.3 2220.6,682.3 2261.6,611.3 2220.6,540.3 2138.6,540.3 "/>
<polygon fill="#FF8CA5" points="2097.6,753.3 2138.6,824.4 2220.6,824.4 2261.6,753.3 2220.6,682.3 2138.6,682.3 "/>
<polygon fill="#FF2CA6" points="2220.6,824.4 2138.6,824.4 2097.6,895.4 2129.6,950.8 2222.4,963.4 2261.6,895.4 "/>
<polygon fill="#FFCCE6" points="2220.6,682.3 2261.6,753.3 2340,753.3 2340,611.3 2261.6,611.3 "/>
<polygon fill="#FF5261" points="2220.6,824.4 2261.6,895.4 2340,895.4 2340,753.3 2261.6,753.3 "/>
<polygon fill="#FFFFFF" points="2222.4,963.4 2340,979.4 2340,979.4 2340,895.4 2261.6,895.4 "/>
</svg>
