<?xml version="1.0" encoding="utf-8"?>
<!-- Generator: Adobe Illustrator 19.0.0, SVG Export Plug-In . SVG Version: 6.00 Build 0)  -->
<svg version="1.1" id="Layer_1" xmlns="http://www.w3.org/2000/svg" xmlns:xlink="http://www.w3.org/1999/xlink" x="0px" y="0px"
	 viewBox="0 0 1920 1080" enable-background="new 0 0 1920 1080" xml:space="preserve">
<path fill="#F4EA13" d="M1919.6,822.5L961,692.1V383.7l958.6,115.4V822.5z"/>
<path fill="#ED2649" d="M1919.6,668.6L961,538.2V383.7l958.6,115.4V668.6z"/>
<path fill="#F4EA13" d="M1,499.3l960-115.6v308.8L1,823.1V499.3z"/>
<path fill="#ED2649" d="M1,499.3l960-115.6v154.4L1,668.7V499.3z"/>
<circle fill="#57BFED" cx="960" cy="540" r="386.9"/>
<linearGradient id="SVGID_1_" gradientUnits="userSpaceOnUse" x1="881.2621" y1="597.2896" x2="1218.4531" y2="351.9499" gradientTransform="matrix(1 0 0 -1 0 1080)">
	<stop  offset="0" style="stop-color:#FFFFFF"/>
	<stop  offset="0.998" style="stop-color:#ADD3EA"/>
</linearGradient>
<path fill="url(#SVGID_1_)" d="M961.4,347.5l320.7,209.3c0.3-5.6,0.4-11.2,0.4-16.8c0-178.2-144.4-322.6-322.6-322.6
	S637.4,361.8,637.4,540S781.8,862.6,960,862.6c34.6,0,67.9-5.4,99.2-15.5L759.7,658L961.4,347.5z"/>
<path fill="#ADD2EA" d="M1282.2,556.8L961.4,347.5L759.7,658l299.4,189.1C1183.7,806.9,1275.2,693,1282.2,556.8z"/>
<path fill="#ADD2EA" d="M1282.2,556.8L961.4,347.5L759.7,658l299.4,189.1C1183.7,806.9,1275.2,693,1282.2,556.8z"/>
<path fill="#57BFED" d="M759.7,658l201.7-310.5L1161.6,658L961.4,481.9L759.7,658z"/>
<g>
	<path fill="#F4EA13" d="M759.7,658l202.5-212.4L1161.6,658L963,558.2L759.7,658z"/>
</g>
<g>
	<path fill="#ED2649" d="M1161.6,658L960.7,517.5L759.7,658l200.9-60.1L1161.6,658z"/>
</g>
</svg>
