<?xml version="1.0" encoding="utf-8"?>
<!-- Generator: Adobe Illustrator 19.0.0, SVG Export Plug-In . SVG Version: 6.00 Build 0)  -->
<svg version="1.1" id="Layer_1" xmlns="http://www.w3.org/2000/svg" xmlns:xlink="http://www.w3.org/1999/xlink" x="0px" y="0px"
	 viewBox="337.7 -0.9 1240 980" style="enable-background:new 337.7 -0.9 1240 980;" xml:space="preserve">
<style type="text/css">
	.st0{fill:#5B5B5B;}
	.st1{fill:none;stroke:#FFFFFF;stroke-width:2;stroke-miterlimit:10;}
	.st2{fill:#FFFFFF;}
	.st3{fill:#F8F700;}
	.st4{fill:none;stroke:#FFFFFF;stroke-miterlimit:10;}
	.st5{fill:#08DF00;}
	.st6{fill:#6CBCFF;}
	.st7{fill:#FFF719;}
	.st8{fill:#F20000;}
	.st9{fill:#FF8C4C;}
	.st10{fill:#FF3254;}
	.st11{fill:#515151;}
	.st12{fill:#FF4939;}
	.st13{fill:#FFD613;}
	.st14{fill:#6FFF06;}
</style>
<path class="st0" d="M591.4,358.2h784.5v462.7H591.4V358.2z"/>
<path class="st1" d="M799,334h603v236 M562,543v301h573"/>
<path class="st2" d="M632,539.5l45.8-27.4v5.6l-41.7,25l41.7,25.1v5.7l-45.8-27V539.5L632,539.5z M674.2,743.9l-45.8,27.4v-5.6
	l41.7-25l-41.7-25.1v-5.7l45.8,27.1V743.9L674.2,743.9z M627.1,605.9h490.3v5.4H627.1V605.9z M627.1,633.4h218.2v5.4H627.1V633.4z
	 M627.1,660.7h319.2v5.4H627.1V660.7z M1464.6,778.3l-0.1-198.6l-99.2,99.2L1464.6,778.3z"/>
<path class="st3" d="M1295.2,675.9L1126,845h338.3L1295.2,675.9z"/>
<path class="st4" d="M845,912.5h665.5V485"/>
<circle class="st5" cx="845.1" cy="912.3" r="8.1"/>
<circle class="st6" cx="649.7" cy="955.2" r="8.1"/>
<circle class="st7" cx="1510.9" cy="477.5" r="8.1"/>
<path class="st4" d="M1509.8,777.7l38.7-38.1V387 M675.4,132.8l-240.5,49.6L518,242L675.4,132.8z"/>
<path class="st4" d="M675.4,218.8l-125-142.3l4.7,250.7L675.4,218.8z"/>
<path class="st4" d="M469.9,96.4l205.5,36.4L518,242L469.9,96.4z"/>
<path class="st4" d="M675.4,218.8L787.9,242L675.4,132.8l-125-56.3L821,159.3L728.3,23.6L675.4,218.8z M787.9,242L942.3,76.5
	l176.6,152.3l112.5-96l133.8,86l63.3-59.5l-63.3,28.1l-130.5-28.1L1056,228.8l-96-69.5L787.9,242z"/>
<path class="st4" d="M728.3,23.6l214,52.9L821,159.3L787.9,242 M1075.2,912.4l-42,42.1H658"/>
<path class="st4" d="M787.2,953.9l-28.9-28.4H561"/>
<path class="st3" d="M680.2,239.6L611,302.8l144.4-49L680.2,239.6z"/>
<path class="st2" d="M535.3,260.5l4.7,97.7l-47.1-67.3L535.3,260.5z"/>
<path class="st8" d="M455.1,111.9l14.8,47.4l-111.7,28.1L455.1,111.9z"/>
<circle class="st9" cx="560.4" cy="926.6" r="8.1"/>
<circle class="st10" cx="1549.1" cy="388.2" r="8.1"/>
<path class="st11" d="M591.4,358.2h784.5v94.1H591.4V358.2z"/>
<circle class="st12" cx="606.3" cy="371.1" r="5.3"/>
<circle class="st13" cx="623" cy="371.1" r="5.3"/>
<circle class="st14" cx="640.9" cy="371.1" r="5.3"/>
</svg>
